<svg width="18" height="16" viewBox="0 0 18 16" fill="none" xmlns="http://www.w3.org/2000/svg">
<path d="M17.236 11.8356C17.236 11.8356 17.2068 11.8356 17.1704 11.8356H15.8516V11.7508C15.6986 11.8073 15.5383 11.8427 15.3853 11.8427C15.3853 11.8427 15.3561 11.8427 15.3197 11.8427H14.5401V11.8498H12.6456H11.3633V11.475C11.3633 11.475 11.3633 11.2064 11.3633 11.1569C11.3487 11.1569 11.3123 11.1569 11.2758 11.1569C11.2758 11.3124 11.2758 11.8498 11.2758 11.8498H9.97889V11.1003C9.76759 11.1852 9.51985 11.2064 9.28669 11.2064C9.28669 11.2064 9.20655 11.2064 9.16283 11.2064C9.16283 11.3336 9.16283 11.8498 9.16283 11.8498H7.63272C7.63272 11.8498 7.38499 11.5811 7.24655 11.4397C7.10811 11.5811 6.86038 11.8498 6.86038 11.8498H4.35392V9.09235H6.81667C6.81667 9.09235 7.09354 9.38224 7.24655 9.55192C7.40685 9.38931 7.67644 9.09943 7.67644 9.09943H7.84402H8.24477H9.498C9.57086 9.09235 9.7603 9.09236 9.9716 9.17013V9.1065H11.6183C11.6984 9.09943 11.9097 9.09943 12.1283 9.18427V9.1065H14.1466H14.5328V9.18427C14.7587 9.09235 14.97 9.09943 14.9991 9.09943H16.3689V9.18427C16.6021 9.09235 16.8134 9.09943 16.8425 9.09943H17.8262V0H0.973108V7.02077L1.54872 5.69156H2.80195C2.80195 5.69156 2.94768 6.02386 2.95496 6.038C2.95496 5.98851 2.95496 5.69156 2.95496 5.69156H4.4195C4.4195 5.69156 4.63808 6.16527 4.74009 6.39152C4.84209 6.16527 5.06068 5.69156 5.06068 5.69156H6.04432H6.13905H6.52522H7.94603H8.06261H8.44878H9.58543C9.66558 5.68449 9.87688 5.68449 10.0955 5.76933V5.69156H11.0135H11.3997V5.86125C11.5891 5.74812 11.8077 5.68449 12.0263 5.67742C12.0263 5.67742 12.7258 5.69863 12.7549 5.69863H14.0009C14.0009 5.69863 14.1393 6.00972 14.1393 6.02386C14.1393 5.94609 14.1393 5.69863 14.1393 5.69863H15.4873C15.4873 5.69863 15.6767 6.00972 15.6986 6.04507C15.6986 5.98851 15.6986 5.69863 15.6986 5.69863H17.0028V8.44896H15.6767C15.6767 8.44896 15.48 8.1308 15.4508 8.08838C15.4508 8.11666 15.4508 8.44896 15.4508 8.44896H13.7823C13.7823 8.44896 13.6366 8.12373 13.6001 8.03182C13.4253 8.03182 13.3306 8.03182 13.1557 8.03182C13.112 8.12373 12.9735 8.44896 12.9735 8.44896H11.866L11.8369 8.44189C11.713 8.42775 11.5527 8.37119 11.3997 8.2722V8.44896H10.4816V8.44189H9.32313V8.06717C9.32313 8.06717 9.32313 7.7985 9.32313 7.74901C9.30855 7.74901 9.27213 7.74901 9.23569 7.74901C9.23569 7.90455 9.23569 8.44189 9.23569 8.44189H8.44149H7.93875H6.51793H6.42321H5.21369C5.21369 8.44189 5.21369 8.40654 5.21369 8.39947C5.20641 8.41361 5.19184 8.44189 5.19184 8.44189H4.26649C4.26649 8.44189 4.25191 8.40654 4.24462 8.3924C4.24462 8.40654 4.24462 8.44189 4.24462 8.44189H2.56879C2.56879 8.44189 2.43036 8.11666 2.38664 8.02475C2.21177 8.02475 2.11705 8.02475 1.94218 8.02475C1.89846 8.11666 1.76002 8.44189 1.76002 8.44189H0.96582V15.9929H17.8189V11.6659C17.6659 11.7861 17.4473 11.8356 17.236 11.8356Z" fill="url(#paint0_radial_1_2228)"/>
<path d="M9.74571 8.06716V7.67829C9.74571 7.67829 9.72386 7.37427 9.39598 7.37427H8.88594V8.06716H8.36133V6.06627H9.62913C9.62913 6.06627 10.2922 5.9885 10.2922 6.65311C10.2922 6.99955 10.0007 7.11974 10.0007 7.11974C10.0007 7.11974 10.2557 7.23287 10.2557 7.57224V8.06716H9.74571ZM8.88594 6.90764H9.42512C9.58541 6.90764 9.70928 6.82279 9.70928 6.71674C9.70928 6.61068 9.57813 6.52584 9.42512 6.52584H8.88594V6.90764Z" fill="url(#paint1_radial_1_2228)"/>
<path d="M15.9247 8.06702L15.094 6.73074V8.06702H14.6423H14.5549H14.0667L13.8845 7.64987H12.93L12.7479 8.06702H12.267H12.1795H11.9245C11.9245 8.06702 11.2178 7.96803 11.2178 7.1196C11.2178 6.00957 12.0193 6.05199 12.0411 6.04492L12.6896 6.05906V6.51156L12.1577 6.51863C12.1577 6.51863 11.8152 6.51863 11.7715 6.95699C11.7642 7.00648 11.7642 7.05597 11.7642 7.09839C11.7642 7.77714 12.369 7.56503 12.3909 7.55796L13.0393 6.06613H13.7752L14.5622 7.88319V6.06613H15.3053L16.1287 7.3812V6.06613H16.6533V8.06702H15.9247ZM13.1486 7.14081H13.6587L13.4109 6.54691L13.1486 7.14081Z" fill="url(#paint2_radial_1_2228)"/>
<path d="M5.63674 8.0668V6.6881L4.98098 8.0668H4.5511L3.88805 6.69517V8.0668H3.42902H3.35615H2.8534L2.67125 7.64966H1.71675L1.5346 8.0668H0.958984L1.82604 6.06592H2.56195L3.35615 7.90419V6.06592H4.1795L4.75511 7.31028L5.33072 6.06592H6.15406V8.0668H5.63674ZM1.94991 7.1406H2.45995L2.20493 6.5467L1.94991 7.1406Z" fill="url(#paint3_radial_1_2228)"/>
<path d="M6.45996 8.0668V6.06592H8.09208V6.53256H6.98457V6.84365H8.06293V7.29614H6.98457V7.63552H8.09208V8.0668H6.45996Z" fill="url(#paint4_radial_1_2228)"/>
<path d="M10.5186 8.07387V6.06592H11.0432V8.07387H10.5186Z" fill="url(#paint5_radial_1_2228)"/>
<path d="M11.7643 11.4607V11.0718C11.7643 11.0718 11.7424 10.7678 11.4145 10.7678H10.9045V11.4607H10.3799V9.45983H11.6477C11.6477 9.45983 12.3107 9.38206 12.3107 10.0467C12.3107 10.3931 12.0193 10.5133 12.0193 10.5133C12.0193 10.5133 12.2743 10.6264 12.2743 10.9658V11.4607H11.7643ZM10.9118 10.2941H11.451C11.6113 10.2941 11.7351 10.2093 11.7351 10.1032C11.7351 9.99717 11.604 9.91233 11.451 9.91233H10.9118V10.2941Z" fill="url(#paint6_radial_1_2228)"/>
<path d="M8.28142 11.4609H7.82238L7.26863 10.867L6.70759 11.4609H6.387H4.75488V9.4529H6.387H6.66388L7.26135 10.0892L7.8661 9.4529H8.26685H9.53465C9.53465 9.4529 10.1977 9.3822 10.1977 10.0397C10.1977 10.6266 9.97911 10.8104 9.30149 10.8104H8.79145V11.4538H8.28142M7.62566 10.471L8.27413 11.171V9.77813L7.62566 10.471ZM5.28677 11.0225H6.387L6.90432 10.471L6.387 9.91954H5.28677V10.2306H6.36514V10.6831H5.28677V11.0225ZM8.79145 10.2943H9.33064C9.49094 10.2943 9.6148 10.2094 9.6148 10.1034C9.6148 9.99731 9.48365 9.91247 9.33064 9.91247H8.79145V10.2943Z" fill="url(#paint7_radial_1_2228)"/>
<path d="M15.3347 11.4539H14.402V10.9943H15.2181C15.2181 10.9943 15.5096 11.0297 15.5096 10.8388C15.5096 10.662 15.0651 10.6762 15.0651 10.6762C15.0651 10.6762 14.3438 10.7398 14.3438 10.0822C14.3438 9.43179 14.9995 9.46714 14.9995 9.46714H16.005V9.93377H15.1962C15.1962 9.93377 14.9194 9.87721 14.9194 10.0752C14.9194 10.2378 15.2982 10.2166 15.2982 10.2166C15.2982 10.2166 16.0997 10.16 16.0997 10.761C16.0997 11.4044 15.5824 11.468 15.4003 11.468C15.3638 11.4609 15.3347 11.4539 15.3347 11.4539Z" fill="url(#paint8_radial_1_2228)"/>
<path d="M12.5361 11.4608V9.45996H14.1683V9.9266H13.0607V10.2306H14.1391V10.6902H13.0607V11.0225H14.1683V11.4608H12.5361Z" fill="url(#paint9_radial_1_2228)"/>
<path d="M17.1848 11.4539H16.2522V10.9943H17.0682C17.0682 10.9943 17.367 11.0297 17.367 10.8388C17.367 10.662 16.9225 10.6762 16.9225 10.6762C16.9225 10.6762 16.2012 10.7398 16.2012 10.0822C16.2012 9.43179 16.8569 9.46714 16.8569 9.46714H17.8624V9.93377H17.0537C17.0537 9.93377 16.7768 9.87721 16.7768 10.0752C16.7768 10.2378 17.1557 10.2166 17.1557 10.2166C17.1557 10.2166 17.9572 10.16 17.9572 10.761C17.9572 11.4044 17.4398 11.468 17.2577 11.468C17.2067 11.4609 17.1848 11.4539 17.1848 11.4539Z" fill="url(#paint10_radial_1_2228)"/>
<defs>
<radialGradient id="paint0_radial_1_2228" cx="0" cy="0" r="1" gradientUnits="userSpaceOnUse" gradientTransform="translate(3.30375 2.24785) scale(20.3082 19.7062)">
<stop stop-color="#00B3E8"/>
<stop offset="0.427" stop-color="#0099CD"/>
<stop offset="0.5077" stop-color="#008FBF"/>
<stop offset="0.8347" stop-color="#006B90"/>
<stop offset="1" stop-color="#005F80"/>
</radialGradient>
<radialGradient id="paint1_radial_1_2228" cx="0" cy="0" r="1" gradientUnits="userSpaceOnUse" gradientTransform="translate(3.31037 2.24861) scale(20.3083 19.7063)">
<stop stop-color="#00B3E8"/>
<stop offset="0.427" stop-color="#0099CD"/>
<stop offset="0.5077" stop-color="#008FBF"/>
<stop offset="0.8347" stop-color="#006B90"/>
<stop offset="1" stop-color="#005F80"/>
</radialGradient>
<radialGradient id="paint2_radial_1_2228" cx="0" cy="0" r="1" gradientUnits="userSpaceOnUse" gradientTransform="translate(3.31077 2.24812) scale(20.3082 19.7062)">
<stop stop-color="#00B3E8"/>
<stop offset="0.427" stop-color="#0099CD"/>
<stop offset="0.5077" stop-color="#008FBF"/>
<stop offset="0.8347" stop-color="#006B90"/>
<stop offset="1" stop-color="#005F80"/>
</radialGradient>
<radialGradient id="paint3_radial_1_2228" cx="0" cy="0" r="1" gradientUnits="userSpaceOnUse" gradientTransform="translate(3.31098 2.24826) scale(20.3082 19.7062)">
<stop stop-color="#00B3E8"/>
<stop offset="0.427" stop-color="#0099CD"/>
<stop offset="0.5077" stop-color="#008FBF"/>
<stop offset="0.8347" stop-color="#006B90"/>
<stop offset="1" stop-color="#005F80"/>
</radialGradient>
<radialGradient id="paint4_radial_1_2228" cx="0" cy="0" r="1" gradientUnits="userSpaceOnUse" gradientTransform="translate(3.3107 2.24826) scale(20.3082 19.7062)">
<stop stop-color="#00B3E8"/>
<stop offset="0.427" stop-color="#0099CD"/>
<stop offset="0.5077" stop-color="#008FBF"/>
<stop offset="0.8347" stop-color="#006B90"/>
<stop offset="1" stop-color="#005F80"/>
</radialGradient>
<radialGradient id="paint5_radial_1_2228" cx="0" cy="0" r="1" gradientUnits="userSpaceOnUse" gradientTransform="translate(3.31086 2.24847) scale(20.3084 19.7064)">
<stop stop-color="#00B3E8"/>
<stop offset="0.427" stop-color="#0099CD"/>
<stop offset="0.5077" stop-color="#008FBF"/>
<stop offset="0.8347" stop-color="#006B90"/>
<stop offset="1" stop-color="#005F80"/>
</radialGradient>
<radialGradient id="paint6_radial_1_2228" cx="0" cy="0" r="1" gradientUnits="userSpaceOnUse" gradientTransform="translate(3.31061 2.24866) scale(20.3079 19.7059)">
<stop stop-color="#00B3E8"/>
<stop offset="0.427" stop-color="#0099CD"/>
<stop offset="0.5077" stop-color="#008FBF"/>
<stop offset="0.8347" stop-color="#006B90"/>
<stop offset="1" stop-color="#005F80"/>
</radialGradient>
<radialGradient id="paint7_radial_1_2228" cx="0" cy="0" r="1" gradientUnits="userSpaceOnUse" gradientTransform="translate(3.31075 2.24838) scale(20.3086 19.7066)">
<stop stop-color="#00B3E8"/>
<stop offset="0.427" stop-color="#0099CD"/>
<stop offset="0.5077" stop-color="#008FBF"/>
<stop offset="0.8347" stop-color="#006B90"/>
<stop offset="1" stop-color="#005F80"/>
</radialGradient>
<radialGradient id="paint8_radial_1_2228" cx="0" cy="0" r="1" gradientUnits="userSpaceOnUse" gradientTransform="translate(3.31078 2.2489) scale(20.3084 19.7064)">
<stop stop-color="#00B3E8"/>
<stop offset="0.427" stop-color="#0099CD"/>
<stop offset="0.5077" stop-color="#008FBF"/>
<stop offset="0.8347" stop-color="#006B90"/>
<stop offset="1" stop-color="#005F80"/>
</radialGradient>
<radialGradient id="paint9_radial_1_2228" cx="0" cy="0" r="1" gradientUnits="userSpaceOnUse" gradientTransform="translate(3.31014 2.24837) scale(20.3089 19.7069)">
<stop stop-color="#00B3E8"/>
<stop offset="0.427" stop-color="#0099CD"/>
<stop offset="0.5077" stop-color="#008FBF"/>
<stop offset="0.8347" stop-color="#006B90"/>
<stop offset="1" stop-color="#005F80"/>
</radialGradient>
<radialGradient id="paint10_radial_1_2228" cx="0" cy="0" r="1" gradientUnits="userSpaceOnUse" gradientTransform="translate(3.31021 2.2489) scale(20.3078 19.7059)">
<stop stop-color="#00B3E8"/>
<stop offset="0.427" stop-color="#0099CD"/>
<stop offset="0.5077" stop-color="#008FBF"/>
<stop offset="0.8347" stop-color="#006B90"/>
<stop offset="1" stop-color="#005F80"/>
</radialGradient>
</defs>
</svg>
