<svg width="114" height="38" viewBox="0 0 114 38" fill="none" xmlns="http://www.w3.org/2000/svg">
<path d="M8.14842 37.998C7.85877 37.998 7.57612 37.9941 7.28875 37.9874C6.69343 37.9793 6.0995 37.9251 5.51183 37.8254C4.96386 37.7267 4.43303 37.5433 3.93684 37.2811C3.44519 37.021 2.99678 36.68 2.60876 36.2712C2.21513 35.8671 1.88742 35.3985 1.63861 34.8839C1.38705 34.3659 1.21296 33.8107 1.1224 33.2376C1.0246 32.6218 0.971684 31.9991 0.964113 31.3749C0.958086 31.1654 0.950195 30.4679 0.950195 30.4679V7.51947C0.950195 7.51947 0.958599 6.83262 0.964161 6.63083C0.97141 6.00764 1.02402 5.38594 1.12152 4.77109C1.21225 4.19642 1.38648 3.63961 1.63817 3.11994C1.88607 2.60566 2.21196 2.13669 2.60322 1.7312C2.99404 1.32186 3.44389 0.979111 3.93637 0.715465C4.43142 0.454082 4.96125 0.271929 5.50812 0.175109C6.09771 0.0743431 6.6937 0.0198644 7.29109 0.0121296L8.14889 0H105.847L106.715 0.0126164C107.307 0.0199668 107.897 0.0739595 108.482 0.174135C109.034 0.27217 109.569 0.455594 110.07 0.718376C111.057 1.2497 111.859 2.0903 112.366 3.12236C112.614 3.63845 112.785 4.19072 112.875 4.76042C112.973 5.38031 113.029 6.0069 113.04 6.6352C113.043 6.91653 113.043 7.21873 113.043 7.51947C113.05 7.892 113.05 8.24658 113.05 8.60407V29.3949C113.05 29.7558 113.05 30.1079 113.043 30.463C113.043 30.786 113.043 31.082 113.039 31.3866C113.028 32.0036 112.974 32.619 112.876 33.2278C112.788 33.8051 112.615 34.3646 112.363 34.8868C112.113 35.3959 111.787 35.8605 111.398 36.2634C111.009 36.6745 110.56 37.0175 110.067 37.2792C109.568 37.5434 109.033 37.7275 108.482 37.8254C107.894 37.9257 107.3 37.9798 106.705 37.9874C106.426 37.9941 106.135 37.998 105.852 37.998L104.821 38L8.14842 37.998Z" fill="black"/>
<path d="M23.5969 19.2857C23.6072 18.4928 23.8184 17.7153 24.2109 17.0257C24.6034 16.336 25.1645 15.7566 25.8419 15.3412C25.4116 14.7283 24.8438 14.2239 24.1838 13.8681C23.5238 13.5123 22.7896 13.3148 22.0397 13.2915C20.4399 13.124 18.889 14.246 18.0738 14.246C17.2428 14.246 15.9877 13.3081 14.6361 13.3358C13.7619 13.364 12.9099 13.6175 12.1631 14.0716C11.4163 14.5258 10.8003 15.1651 10.3749 15.9273C8.53246 19.1083 9.90677 23.7833 11.6717 26.3546C12.5547 27.6136 13.5867 29.0201 14.9371 28.9702C16.2585 28.9155 16.752 28.1299 18.3471 28.1299C19.9273 28.1299 20.3903 28.9702 21.7681 28.9385C23.186 28.9155 24.0794 27.6738 24.9314 26.4028C25.5659 25.5057 26.0541 24.5141 26.378 23.4649C25.5542 23.1175 24.8512 22.5359 24.3567 21.7927C23.8621 21.0495 23.5979 20.1776 23.5969 19.2857Z" fill="white"/>
<path d="M20.9943 11.6003C21.7674 10.6748 22.1483 9.4852 22.056 8.28418C20.8749 8.40789 19.7838 8.97082 19.0003 9.86081C18.6172 10.2956 18.3237 10.8014 18.1368 11.3493C17.9498 11.8973 17.873 12.4766 17.9107 13.0541C18.5015 13.0602 19.0859 12.9325 19.6201 12.6807C20.1542 12.4288 20.6241 12.0594 20.9943 11.6003Z" fill="white"/>
<path d="M40.3001 25.7828H35.7908L34.7078 28.9714H32.7979L37.069 17.1743H39.0534L43.3246 28.9714H41.3821L40.3001 25.7828ZM36.2578 24.3114H39.8322L38.0701 19.1365H38.0208L36.2578 24.3114Z" fill="white"/>
<path d="M52.5485 24.6714C52.5485 27.3442 51.1139 29.0614 48.949 29.0614C48.4006 29.09 47.8552 28.964 47.3753 28.6979C46.8953 28.4318 46.5002 28.0362 46.2352 27.5566H46.1943V31.8168H44.4238V20.3704H46.1375V21.801H46.1701C46.4473 21.3236 46.8491 20.9301 47.3327 20.6624C47.8163 20.3946 48.3636 20.2626 48.9165 20.2804C51.1055 20.2804 52.5485 22.006 52.5485 24.6714ZM50.7288 24.6714C50.7288 22.93 49.8263 21.7852 48.4494 21.7852C47.0967 21.7852 46.1868 22.9541 46.1868 24.6714C46.1868 26.4044 47.0967 27.565 48.4494 27.565C49.8263 27.565 50.7288 26.4285 50.7288 24.6714Z" fill="white"/>
<path d="M62.0417 24.6714C62.0417 27.3442 60.6071 29.0614 58.4422 29.0614C57.8938 29.09 57.3484 28.964 56.8684 28.6979C56.3885 28.4318 55.9934 28.0362 55.7284 27.5566H55.6874V31.8168H53.917V20.3704H55.6307V21.8009H55.6632C55.9404 21.3236 56.3422 20.9301 56.8258 20.6624C57.3094 20.3946 57.8567 20.2626 58.4096 20.2804C60.5987 20.2804 62.0417 22.006 62.0417 24.6714ZM60.2219 24.6714C60.2219 22.93 59.3195 21.7852 57.9426 21.7852C56.5899 21.7852 55.68 22.9541 55.68 24.6714C55.68 26.4044 56.5899 27.565 57.9426 27.565C59.3195 27.565 60.2219 26.4285 60.2219 24.6714H60.2219Z" fill="white"/>
<path d="M68.3162 25.6844C68.4474 26.8543 69.5871 27.6224 71.1445 27.6224C72.6367 27.6224 73.7103 26.8542 73.7103 25.7994C73.7103 24.8837 73.0628 24.3354 71.5296 23.9597L69.9964 23.5914C67.8241 23.0681 66.8156 22.055 66.8156 20.4111C66.8156 18.3756 68.5944 16.9775 71.1203 16.9775C73.6201 16.9775 75.3338 18.3756 75.3915 20.4111H73.6043C73.4973 19.2338 72.5213 18.5232 71.0951 18.5232C69.6689 18.5232 68.693 19.2421 68.693 20.2886C68.693 21.1227 69.3163 21.6134 70.8412 21.9891L72.1446 22.3083C74.5718 22.8807 75.5803 23.853 75.5803 25.5785C75.5803 27.7856 73.8173 29.1679 71.0133 29.1679C68.3897 29.1679 66.6183 27.8181 66.5039 25.6843L68.3162 25.6844Z" fill="white"/>
<path d="M79.4011 18.335V20.3704H81.0413V21.7685H79.4011V26.5102C79.4011 27.2468 79.7295 27.59 80.4505 27.59C80.6452 27.5867 80.8396 27.573 81.0329 27.5492V28.9389C80.7087 28.9993 80.3792 29.0267 80.0495 29.0206C78.3033 29.0206 77.6223 28.3665 77.6223 26.6985V21.7685H76.3682V20.3704H77.6222V18.335H79.4011Z" fill="white"/>
<path d="M81.9912 24.6714C81.9912 21.9652 83.5895 20.2646 86.0819 20.2646C88.5827 20.2646 90.1735 21.9651 90.1735 24.6714C90.1735 27.385 88.591 29.0781 86.0819 29.0781C83.5737 29.0781 81.9912 27.385 81.9912 24.6714ZM88.3696 24.6714C88.3696 22.815 87.5165 21.7193 86.0819 21.7193C84.6473 21.7193 83.7951 22.8233 83.7951 24.6714C83.7951 26.5352 84.6473 27.6225 86.0819 27.6225C87.5165 27.6225 88.3696 26.5352 88.3696 24.6714H88.3696Z" fill="white"/>
<path d="M91.6338 20.3703H93.3224V21.8343H93.3633C93.4776 21.377 93.7462 20.973 94.124 20.69C94.5018 20.407 94.9658 20.2623 95.438 20.2803C95.642 20.2796 95.8455 20.3017 96.0446 20.3462V21.9975C95.787 21.9191 95.5183 21.883 95.2491 21.8909C94.9919 21.8805 94.7355 21.9257 94.4975 22.0234C94.2594 22.1212 94.0454 22.2691 93.8702 22.4571C93.6949 22.6451 93.5625 22.8687 93.4821 23.1125C93.4017 23.3564 93.3751 23.6147 93.4042 23.8697V28.9713H91.6338L91.6338 20.3703Z" fill="white"/>
<path d="M104.207 26.4452C103.969 28.0066 102.444 29.0781 100.493 29.0781C97.9841 29.0781 96.4268 27.4017 96.4268 24.7122C96.4268 22.0144 97.9925 20.2646 100.419 20.2646C102.805 20.2646 104.306 21.8993 104.306 24.5072V25.1121H98.2139V25.2187C98.1858 25.5353 98.2256 25.8542 98.3305 26.1542C98.4355 26.4543 98.6033 26.7286 98.8227 26.959C99.0422 27.1895 99.3083 27.3707 99.6034 27.4907C99.8984 27.6107 100.216 27.6667 100.534 27.655C100.953 27.6941 101.372 27.5974 101.731 27.3795C102.09 27.1615 102.369 26.8338 102.526 26.4452L104.207 26.4452ZM98.2223 23.8782H102.534C102.55 23.5936 102.507 23.3087 102.407 23.0416C102.308 22.7744 102.154 22.5307 101.955 22.3257C101.756 22.1208 101.517 21.959 101.253 21.8504C100.989 21.7419 100.705 21.6891 100.419 21.6952C100.131 21.6935 99.8447 21.7487 99.578 21.8577C99.3112 21.9667 99.0687 22.1274 98.8645 22.3303C98.6602 22.5333 98.4984 22.7745 98.3881 23.0402C98.2779 23.3059 98.2216 23.5907 98.2223 23.8782V23.8782Z" fill="white"/>
<path d="M36.0357 8.29452C36.4068 8.26796 36.7793 8.32387 37.1262 8.45824C37.4731 8.5926 37.7857 8.80205 38.0416 9.0715C38.2975 9.34094 38.4902 9.66365 38.6058 10.0164C38.7215 10.3691 38.7572 10.743 38.7104 11.1111C38.7104 12.9221 37.7289 13.963 36.0357 13.963H33.9824V8.29452H36.0357ZM34.8653 13.1614H35.9371C36.2023 13.1772 36.4677 13.1338 36.714 13.0344C36.9603 12.935 37.1813 12.7821 37.3609 12.5869C37.5404 12.3916 37.6741 12.1588 37.7521 11.9055C37.83 11.6522 37.8504 11.3848 37.8117 11.1227C37.8476 10.8616 37.8252 10.5958 37.746 10.3444C37.6668 10.0929 37.5328 9.86208 37.3537 9.66835C37.1745 9.47461 36.9546 9.32279 36.7097 9.22377C36.4648 9.12474 36.2009 9.08096 35.9371 9.09557H34.8653V13.1614Z" fill="white"/>
<path d="M39.7078 11.8221C39.6808 11.541 39.7131 11.2573 39.8025 10.9894C39.8919 10.7214 40.0365 10.475 40.2269 10.266C40.4174 10.0571 40.6496 9.89009 40.9086 9.77582C41.1676 9.66156 41.4476 9.60254 41.7308 9.60254C42.014 9.60254 42.2941 9.66156 42.5531 9.77582C42.8121 9.89009 43.0442 10.0571 43.2347 10.266C43.4252 10.475 43.5698 10.7214 43.6592 10.9894C43.7486 11.2573 43.7808 11.541 43.7539 11.8221C43.7813 12.1035 43.7495 12.3875 43.6603 12.6559C43.5711 12.9243 43.4267 13.1712 43.2361 13.3806C43.0456 13.59 42.8133 13.7573 42.554 13.8718C42.2948 13.9863 42.0144 14.0454 41.7308 14.0454C41.4473 14.0454 41.1669 13.9863 40.9077 13.8718C40.6484 13.7573 40.4161 13.59 40.2255 13.3806C40.035 13.1712 39.8905 12.9243 39.8014 12.6559C39.7122 12.3875 39.6803 12.1035 39.7078 11.8221ZM42.883 11.8221C42.883 10.8948 42.4653 10.3526 41.7322 10.3526C40.9963 10.3526 40.5824 10.8948 40.5824 11.8221C40.5824 12.7568 40.9964 13.2949 41.7322 13.2949C42.4653 13.2949 42.8831 12.7531 42.8831 11.8221H42.883Z" fill="white"/>
<path d="M49.1323 13.9628H48.254L47.3674 10.8123H47.3005L46.4176 13.9628H45.5477L44.3652 9.68506H45.2239L45.9924 12.9493H46.0557L46.9376 9.68506H47.7498L48.6318 12.9493H48.6988L49.4635 9.68506H50.3101L49.1323 13.9628Z" fill="white"/>
<path d="M51.3047 9.68493H52.1197V10.3645H52.1829C52.2903 10.1204 52.4713 9.91582 52.7007 9.7792C52.9302 9.64258 53.1967 9.58076 53.4631 9.60236C53.6718 9.58671 53.8814 9.61809 54.0763 9.69418C54.2712 9.77027 54.4465 9.88912 54.5891 10.0419C54.7317 10.1947 54.838 10.3776 54.9001 10.5769C54.9622 10.7762 54.9785 10.9869 54.9479 11.1934V13.9627H54.1013V11.4054C54.1013 10.718 53.8017 10.3761 53.1756 10.3761C53.0339 10.3695 52.8924 10.3936 52.7609 10.4466C52.6294 10.4996 52.5109 10.5804 52.4136 10.6834C52.3163 10.7863 52.2425 10.9091 52.1972 11.0431C52.152 11.1772 52.1363 11.3195 52.1513 11.4601V13.9627H51.3047L51.3047 9.68493Z" fill="white"/>
<path d="M56.2969 8.01514H57.1435V13.9628H56.2969V8.01514Z" fill="white"/>
<path d="M58.3201 11.8222C58.2931 11.541 58.3254 11.2574 58.4148 10.9894C58.5043 10.7214 58.6489 10.475 58.8393 10.2661C59.0298 10.0571 59.262 9.89009 59.521 9.77583C59.78 9.66156 60.0601 9.60254 60.3434 9.60254C60.6266 9.60254 60.9067 9.66156 61.1657 9.77583C61.4247 9.89009 61.6569 10.0571 61.8473 10.2661C62.0378 10.475 62.1824 10.7214 62.2719 10.9894C62.3613 11.2574 62.3936 11.541 62.3666 11.8222C62.394 12.1036 62.3622 12.3876 62.273 12.656C62.1838 12.9244 62.0393 13.1713 61.8487 13.3806C61.6582 13.59 61.4258 13.7573 61.1666 13.8719C60.9073 13.9864 60.6269 14.0455 60.3434 14.0455C60.0598 14.0455 59.7794 13.9864 59.5201 13.8719C59.2609 13.7573 59.0285 13.59 58.838 13.3806C58.6474 13.1713 58.5029 12.9244 58.4137 12.656C58.3245 12.3876 58.2926 12.1036 58.3201 11.8222ZM61.4953 11.8222C61.4953 10.8949 61.0776 10.3527 60.3445 10.3527C59.6086 10.3527 59.1946 10.8949 59.1946 11.8222C59.1946 12.7569 59.6086 13.295 60.3445 13.295C61.0776 13.295 61.4953 12.7532 61.4953 11.8222H61.4953Z" fill="white"/>
<path d="M63.2578 12.7531C63.2578 11.9831 63.8328 11.5392 64.8533 11.4761L66.0153 11.4093V11.0401C66.0153 10.5882 65.7158 10.3331 65.1371 10.3331C64.6645 10.3331 64.337 10.5062 64.243 10.8086H63.4234C63.5099 10.0738 64.203 9.60254 65.1762 9.60254C66.2516 9.60254 66.8582 10.1364 66.8582 11.0401V13.9629H66.0432V13.3617H65.9763C65.8403 13.5774 65.6494 13.7532 65.423 13.8712C65.1966 13.9892 64.9429 14.0451 64.6877 14.0334C64.5077 14.052 64.3256 14.0329 64.1534 13.9771C63.9812 13.9214 63.8227 13.8302 63.6879 13.7096C63.5532 13.589 63.4453 13.4416 63.3712 13.2768C63.2972 13.1121 63.2585 12.9337 63.2578 12.7531ZM66.0153 12.3876V12.0299L64.9678 12.0967C64.377 12.1362 64.1091 12.3366 64.1091 12.7137C64.1091 13.0987 64.444 13.3227 64.9045 13.3227C65.0395 13.3364 65.1758 13.3228 65.3054 13.2828C65.4349 13.2428 65.5551 13.1772 65.6587 13.09C65.7624 13.0027 65.8474 12.8956 65.9086 12.7749C65.9699 12.6543 66.0062 12.5225 66.0153 12.3876Z" fill="white"/>
<path d="M67.9707 11.8221C67.9707 10.4704 68.6675 9.6141 69.7514 9.6141C70.0195 9.60178 70.2855 9.66582 70.5185 9.79872C70.7514 9.93161 70.9416 10.1279 71.0669 10.3646H71.1301V8.01514H71.9767V13.9628H71.1655V13.287H71.0985C70.9636 13.5221 70.7668 13.7159 70.5293 13.8475C70.2919 13.979 70.0228 14.0433 69.7514 14.0333C68.6601 14.0334 67.9707 13.1771 67.9707 11.8221ZM68.8453 11.8221C68.8453 12.7294 69.2741 13.2754 69.9914 13.2754C70.705 13.2754 71.146 12.7216 71.146 11.8258C71.146 10.9343 70.7004 10.3725 69.9914 10.3725C69.2788 10.3725 68.8452 10.9222 68.8452 11.8221H68.8453Z" fill="white"/>
<path d="M75.4793 11.8221C75.4523 11.541 75.4846 11.2573 75.574 10.9894C75.6634 10.7214 75.8079 10.475 75.9984 10.266C76.1889 10.0571 76.4211 9.89009 76.6801 9.77582C76.939 9.66156 77.2191 9.60254 77.5023 9.60254C77.7855 9.60254 78.0656 9.66156 78.3246 9.77582C78.5835 9.89009 78.8157 10.0571 79.0062 10.266C79.1967 10.475 79.3412 10.7214 79.4306 10.9894C79.52 11.2573 79.5523 11.541 79.5253 11.8221C79.5528 12.1035 79.5209 12.3875 79.4318 12.6559C79.3426 12.9243 79.1981 13.1712 79.0076 13.3806C78.8171 13.59 78.5847 13.7573 78.3255 13.8718C78.0662 13.9863 77.7858 14.0454 77.5023 14.0454C77.2188 14.0454 76.9384 13.9863 76.6791 13.8718C76.4199 13.7573 76.1875 13.59 75.997 13.3806C75.8065 13.1712 75.662 12.9243 75.5728 12.6559C75.4837 12.3875 75.4518 12.1035 75.4793 11.8221ZM78.6545 11.8221C78.6545 10.8948 78.2368 10.3526 77.5037 10.3526C76.7678 10.3526 76.3538 10.8948 76.3538 11.8221C76.3538 12.7568 76.7678 13.2949 77.5037 13.2949C78.2368 13.2949 78.6545 12.7531 78.6545 11.8221Z" fill="white"/>
<path d="M80.6621 9.68493H81.4771V10.3645H81.5404C81.6477 10.1204 81.8287 9.91582 82.0582 9.7792C82.2876 9.64258 82.5541 9.58076 82.8205 9.60236C83.0292 9.58671 83.2388 9.61809 83.4337 9.69418C83.6286 9.77027 83.8039 9.88912 83.9465 10.0419C84.0891 10.1947 84.1954 10.3776 84.2575 10.5769C84.3196 10.7762 84.336 10.9869 84.3053 11.1934V13.9627H83.4587V11.4054C83.4587 10.718 83.1591 10.3761 82.533 10.3761C82.3913 10.3695 82.2498 10.3936 82.1183 10.4466C81.9868 10.4996 81.8683 10.5804 81.771 10.6834C81.6737 10.7863 81.5999 10.9091 81.5547 11.0431C81.5094 11.1772 81.4937 11.3195 81.5087 11.4601V13.9627H80.6621V9.68493Z" fill="white"/>
<path d="M89.0891 8.62012V9.70464H90.0185V10.4157H89.0891V12.6154C89.0891 13.0635 89.2742 13.2597 89.6957 13.2597C89.8036 13.2594 89.9114 13.2529 90.0185 13.2402V13.9435C89.8665 13.9706 89.7124 13.985 89.558 13.9866C88.6165 13.9866 88.2416 13.6563 88.2416 12.8316V10.4157H87.5605V9.7046H88.2416V8.62012H89.0891Z" fill="white"/>
<path d="M91.1748 8.01514H92.014V10.3725H92.0809C92.1935 10.1262 92.3795 9.9204 92.6135 9.78327C92.8476 9.64614 93.1184 9.58431 93.3889 9.60621C93.5966 9.59494 93.8042 9.62951 93.9969 9.70745C94.1896 9.78539 94.3627 9.90478 94.5038 10.0571C94.6449 10.2094 94.7505 10.3909 94.8132 10.5886C94.8759 10.7864 94.894 10.9955 94.8663 11.201V13.9628H94.0189V11.4092C94.0189 10.726 93.6997 10.3799 93.1016 10.3799C92.9561 10.368 92.8097 10.388 92.6727 10.4384C92.5358 10.4888 92.4115 10.5684 92.3086 10.6717C92.2057 10.775 92.1267 10.8995 92.0771 11.0364C92.0275 11.1733 92.0085 11.3194 92.0214 11.4644V13.9628H91.1748L91.1748 8.01514Z" fill="white"/>
<path d="M99.8021 12.8079C99.6871 13.1989 99.4379 13.5371 99.0981 13.7633C98.7582 13.9896 98.3495 14.0895 97.9433 14.0455C97.6607 14.053 97.3798 13.999 97.1202 13.8873C96.8606 13.7757 96.6285 13.609 96.4399 13.399C96.2514 13.1889 96.1109 12.9404 96.0283 12.6708C95.9458 12.4011 95.923 12.1168 95.9617 11.8375C95.924 11.5574 95.9472 11.2724 96.0296 11.002C96.112 10.7316 96.2517 10.4819 96.4392 10.27C96.6268 10.0581 96.8578 9.88884 97.1166 9.77369C97.3755 9.65854 97.6561 9.6002 97.9396 9.60261C99.1332 9.60261 99.8533 10.4158 99.8533 11.7591V12.0537H96.8241V12.101C96.8108 12.258 96.8306 12.416 96.8822 12.5649C96.9337 12.7138 97.0159 12.8504 97.1235 12.9657C97.2311 13.0811 97.3616 13.1728 97.5068 13.2349C97.652 13.2971 97.8086 13.3283 97.9665 13.3265C98.169 13.3508 98.3742 13.3144 98.5559 13.222C98.7377 13.1297 98.8878 12.9855 98.9871 12.8079L99.8021 12.8079ZM96.8241 11.4293H98.9908C99.0015 11.2857 98.9819 11.1415 98.9334 11.006C98.8848 10.8704 98.8084 10.7464 98.7089 10.6421C98.6095 10.5377 98.4893 10.4552 98.3559 10.4C98.2226 10.3447 98.0792 10.3178 97.9349 10.3211C97.7885 10.3193 97.6431 10.3467 97.5075 10.4018C97.3719 10.4568 97.2487 10.5384 97.1451 10.6417C97.0416 10.7449 96.9599 10.8678 96.9047 11.0031C96.8496 11.1384 96.8222 11.2833 96.8241 11.4293H96.8241Z" fill="white"/>
</svg>
