<svg width="132" height="38" viewBox="0 0 132 38" fill="none" xmlns="http://www.w3.org/2000/svg">
<g clip-path="url(#clip0_1_2138)">
<path d="M7.313 38.1387C7.0122 38.1387 6.71887 38.1347 6.42047 38.1283C5.86847 38.1126 5.21407 38.0819 4.57541 37.967C3.97274 37.8582 3.43754 37.6809 2.93994 37.4265C2.42527 37.1651 1.96234 36.8278 1.561 36.4227C1.1522 36.0217 0.816198 35.5611 0.553532 35.0443C0.297798 34.5459 0.122596 34.011 0.0175293 33.4083C-0.102737 32.7443 -0.133662 32.0705 -0.146729 31.5577C-0.152862 31.3494 -0.161133 30.6563 -0.161133 30.6563V7.33821C-0.161133 7.33821 -0.152595 6.65581 -0.146729 6.45528C-0.133662 5.93794 -0.102735 5.26461 0.0167317 4.60728C0.122065 4.00141 0.297271 3.46674 0.553271 2.96648C0.815405 2.44888 1.15168 1.98568 1.55514 1.58648C1.96341 1.17794 2.42794 0.839544 2.9394 0.577144C3.4466 0.319811 3.981 0.144078 4.5714 0.0403442C5.2362 -0.0788558 5.91007 -0.108456 6.42287 -0.121522L7.31354 -0.133789H123.969L124.87 -0.120989C125.377 -0.108456 126.049 -0.0788557 126.705 0.0392776C127.3 0.143544 127.838 0.320344 128.353 0.580344C128.86 0.839544 129.324 1.17794 129.729 1.58274C130.132 1.98381 130.47 2.44941 130.737 2.96888C130.993 3.47368 131.166 4.00808 131.265 4.59661C131.382 5.21928 131.417 5.85901 131.438 6.45954C131.441 6.73901 131.441 7.03928 131.441 7.33821C131.449 7.70834 131.449 8.06061 131.449 8.41581V29.5899C131.449 29.9489 131.449 30.2985 131.441 30.6515C131.441 30.9726 131.441 31.2665 131.436 31.5691C131.417 32.1505 131.382 32.7897 131.268 33.3987C131.166 34.0043 130.993 34.5393 130.734 35.0473C130.47 35.5601 130.132 36.0238 129.732 36.4153C129.324 36.8278 128.862 37.1641 128.35 37.4243C127.838 37.6849 127.316 37.8571 126.705 37.967C126.073 38.0819 125.417 38.1126 124.86 38.1283C124.572 38.1347 124.268 38.1387 123.974 38.1387L122.905 38.1409L7.313 38.1387Z" fill="#030404"/>
<path d="M44.3957 24.4149H47.8914L46.64 21.0647C46.4677 20.6021 46.2984 20.0909 46.1314 19.5309C45.9808 20.0261 45.8165 20.5319 45.6389 21.0485L44.3957 24.4149ZM48.4888 26.0053H43.8064L42.6602 29.1375H40.6016L45.1869 17.4399H47.1325L51.8229 29.1375H49.6594L48.4888 26.0053Z" fill="white"/>
<path d="M57.8683 27.0016C58.2747 26.4555 58.4779 25.6576 58.4779 24.608C58.4779 23.6342 58.3096 22.9275 57.9734 22.4888C57.6368 22.0502 57.1888 21.831 56.6291 21.831C56.2416 21.831 55.8838 21.9227 55.5555 22.1054C55.2272 22.2886 54.915 22.5334 54.619 22.84V27.5062C54.8182 27.603 55.0496 27.6798 55.3134 27.736C55.5771 27.7928 55.8382 27.8211 56.0963 27.8211C56.8715 27.8211 57.4619 27.5478 57.8683 27.0016ZM52.6251 22.5496C52.6251 21.9038 52.6035 21.1934 52.5605 20.4182H54.4333C54.5032 20.779 54.5518 21.1478 54.5787 21.5243C55.3536 20.6795 56.2416 20.2568 57.2427 20.2568C57.824 20.2568 58.3622 20.4035 58.8574 20.6966C59.3523 20.9902 59.752 21.4528 60.056 22.0851C60.3603 22.7176 60.5123 23.5211 60.5123 24.495C60.5123 25.5123 60.3387 26.3814 59.9915 27.1024C59.6443 27.8238 59.1587 28.3699 58.5344 28.7414C57.9102 29.1126 57.1888 29.2984 56.3709 29.2984C55.7787 29.2984 55.1947 29.1987 54.619 28.9998V32.6L52.6251 32.7696V22.5496Z" fill="white"/>
<path d="M66.9838 27.0016C67.3902 26.4555 67.5934 25.6576 67.5934 24.608C67.5934 23.6342 67.4251 22.9275 67.0888 22.4888C66.7523 22.0502 66.3043 21.831 65.7446 21.831C65.3571 21.831 64.9992 21.9227 64.671 22.1054C64.3424 22.2886 64.0305 22.5334 63.7345 22.84V27.5062C63.9337 27.603 64.1649 27.6798 64.4289 27.736C64.6923 27.7928 64.9534 27.8211 65.2118 27.8211C65.9867 27.8211 66.5774 27.5478 66.9838 27.0016ZM61.7403 22.5496C61.7403 21.9038 61.7187 21.1934 61.6758 20.4182H63.5488C63.6187 20.779 63.6673 21.1478 63.6942 21.5243C64.4691 20.6795 65.3571 20.2568 66.3582 20.2568C66.9395 20.2568 67.4774 20.4035 67.9728 20.6966C68.4678 20.9902 68.8675 21.4528 69.1718 22.0851C69.4755 22.7176 69.6278 23.5211 69.6278 24.495C69.6278 25.5123 69.4539 26.3814 69.107 27.1024C68.7598 27.8238 68.2739 28.3699 67.6499 28.7414C67.0254 29.1126 66.3043 29.2984 65.4862 29.2984C64.8942 29.2984 64.3102 29.1987 63.7345 28.9998V32.6L61.7403 32.7696V22.5496Z" fill="white"/>
<path d="M73.2896 28.583C72.4283 28.107 71.7664 27.4246 71.3038 26.5366C70.8406 25.6486 70.6094 24.5993 70.6094 23.3884C70.6094 22.0753 70.8758 20.9596 71.4086 20.042C71.9414 19.1244 72.6667 18.4356 73.584 17.9753C74.5019 17.5153 75.531 17.2852 76.6723 17.2852C77.3448 17.2852 77.9867 17.3593 78.5976 17.507C79.2083 17.6553 79.7774 17.8582 80.3051 18.1166L79.7963 19.6505C78.736 19.1446 77.7243 18.8916 76.7611 18.8916C75.9483 18.8916 75.2366 19.0652 74.6259 19.4124C74.015 19.7596 73.5398 20.2694 73.2008 20.9422C72.8616 21.615 72.6923 22.4276 72.6923 23.3801C72.6923 24.2145 72.8227 24.9545 73.0835 25.6004C73.3448 26.246 73.7566 26.7574 74.319 27.134C74.8814 27.5108 75.5904 27.699 76.4462 27.699C76.8336 27.699 77.2211 27.6668 77.6086 27.6022C77.996 27.5377 78.3595 27.4436 78.6984 27.3196V24.9545H75.9942V23.4044H80.6361V28.3289C79.9686 28.6409 79.2675 28.8806 78.5331 29.0473C77.7982 29.214 77.0678 29.2974 76.3411 29.2974C75.1678 29.2974 74.1504 29.0596 73.2896 28.583Z" fill="white"/>
<path d="M86.5054 27.5142C86.9196 27.3152 87.2588 27.0675 87.5225 26.7715V25.1571C86.9788 25.0979 86.5348 25.0683 86.1905 25.0683C85.367 25.0683 84.7977 25.2014 84.4833 25.468C84.1681 25.7339 84.0108 26.0934 84.0108 26.5454C84.0108 26.9763 84.1252 27.295 84.354 27.5022C84.5828 27.7094 84.8934 27.8128 85.2862 27.8128C85.6844 27.8128 86.0908 27.7134 86.5054 27.5142ZM87.7001 29.1288C87.63 28.7896 87.5841 28.4051 87.5628 27.9744C87.2561 28.3406 86.8566 28.6512 86.3638 28.907C85.8718 29.1624 85.3158 29.2902 84.6969 29.2902C84.1964 29.2902 83.7404 29.192 83.3284 28.9955C82.9172 28.7992 82.59 28.5032 82.3478 28.1075C82.1057 27.712 81.9844 27.2291 81.9844 26.6584C81.9844 25.8136 82.2884 25.1395 82.8966 24.6363C83.5049 24.1331 84.5193 23.8816 85.9401 23.8816C86.4729 23.8816 87.0004 23.9192 87.5225 23.9944V23.8251C87.5225 23.0555 87.3582 22.5134 87.03 22.1982C86.7017 21.8835 86.2308 21.7262 85.6174 21.7262C85.1921 21.7262 84.7374 21.788 84.2529 21.9118C83.7686 22.0358 83.3433 22.1835 82.9774 22.3558L82.6625 20.9027C83.0177 20.7411 83.486 20.5934 84.0673 20.4587C84.6486 20.3243 85.262 20.2568 85.9078 20.2568C86.6614 20.2568 87.3017 20.3712 87.8292 20.5998C88.3566 20.8286 88.7684 21.2216 89.0644 21.7784C89.3604 22.3358 89.5084 23.0851 89.5084 24.027V27.4899C89.5084 27.8507 89.5297 28.3971 89.5729 29.1288H87.7001Z" fill="white"/>
<path d="M91.0635 27.0467V16.7539L93.0493 16.5923V26.6915C93.0493 27.063 93.1125 27.3251 93.2389 27.4787C93.3653 27.6318 93.5659 27.7088 93.8405 27.7088C93.9643 27.7088 94.1392 27.6792 94.3651 27.62L94.5992 29.0488C94.4107 29.1243 94.1808 29.1848 93.9093 29.2304C93.6373 29.276 93.3803 29.299 93.1382 29.299C91.7547 29.299 91.0635 28.5483 91.0635 27.0467Z" fill="white"/>
<path d="M96.0225 27.0467V16.7539L98.0083 16.5923V26.6915C98.0083 27.063 98.0715 27.3251 98.1979 27.4787C98.3246 27.6318 98.5251 27.7088 98.7995 27.7088C98.9233 27.7088 99.0982 27.6792 99.3243 27.62L99.5585 29.0488C99.3699 29.1243 99.1398 29.1848 98.8683 29.2304C98.5963 29.276 98.3393 29.299 98.0971 29.299C96.7139 29.299 96.0225 28.5483 96.0225 27.0467Z" fill="white"/>
<path d="M105.761 23.7606C105.721 23.0662 105.548 22.5456 105.236 22.1982C104.924 21.8512 104.505 21.6776 103.985 21.6776C103.478 21.6776 103.057 21.8526 102.721 22.2024C102.385 22.5523 102.164 23.0718 102.062 23.7606H105.761ZM107.705 25.0278H102.006C102.097 26.8523 102.966 27.7646 104.614 27.7646C105.022 27.7646 105.441 27.7147 105.87 27.6152C106.297 27.5155 106.708 27.3824 107.1 27.2155L107.537 28.5798C106.561 29.0536 105.468 29.2902 104.252 29.2902C103.324 29.2902 102.545 29.1155 101.91 28.7656C101.273 28.4158 100.796 27.9126 100.476 27.2558C100.156 26.5995 99.9961 25.8083 99.9961 24.8827C99.9961 23.9192 100.166 23.0904 100.505 22.396C100.844 21.7019 101.316 21.1718 101.921 20.8056C102.526 20.4398 103.225 20.2568 104.017 20.2568C104.841 20.2568 105.526 20.4494 106.078 20.8342C106.63 21.2187 107.038 21.7315 107.305 22.3718C107.572 23.0126 107.705 23.72 107.705 24.495V25.0278Z" fill="white"/>
<path d="M109.215 22.6059C109.215 22.1272 109.191 21.3979 109.148 20.4182H111.015C111.047 20.6606 111.076 20.9496 111.108 21.2862C111.138 21.6224 111.156 21.8955 111.167 22.1054C111.399 21.7235 111.626 21.4019 111.85 21.1408C112.074 20.8798 112.335 20.6672 112.634 20.503C112.932 20.3387 113.271 20.2568 113.655 20.2568C113.962 20.2568 114.223 20.2891 114.444 20.3536L114.194 22.0814C114.002 22.0222 113.786 21.9926 113.548 21.9926C113.082 21.9926 112.671 22.1123 112.322 22.3518C111.972 22.5912 111.599 22.9854 111.199 23.5344V29.1288H109.215V22.6059Z" fill="white"/>
<path d="M115.589 32.6956C115.299 32.6446 115.059 32.5868 114.872 32.5222L115.235 31.0692C115.368 31.1065 115.539 31.143 115.744 31.178C115.947 31.2132 116.141 31.2305 116.325 31.2305C117.208 31.2305 117.869 30.6625 118.309 29.527L118.44 29.2041L115.227 20.4209H117.365L118.981 25.3294C119.243 26.1689 119.413 26.8121 119.488 27.2585C119.64 26.6289 119.816 25.9993 120.021 25.3697L121.661 20.4209H123.669L120.467 29.2446C120.165 30.0788 119.837 30.7513 119.488 31.2628C119.139 31.774 118.725 32.1534 118.251 32.4012C117.773 32.6484 117.2 32.7724 116.525 32.7724C116.192 32.7724 115.88 32.747 115.589 32.6956Z" fill="white"/>
<path d="M40.5654 6.30127H44.1196L44.0196 7.15967H41.607V8.82207H43.882V9.62634H41.607V11.4679H44.1486L44.0612 12.3346H40.5654V6.30127Z" fill="white"/>
<path d="M46.5691 9.2554L44.6942 6.30127H45.8774L47.1483 8.4722L48.4859 6.30127H49.6358L47.7774 9.21807L49.7899 12.3346H48.5899L47.1526 9.95967L45.6899 12.3346H44.54L46.5691 9.2554Z" fill="white"/>
<path d="M53.1682 8.99514C53.3903 8.7938 53.5015 8.5098 53.5015 8.14314C53.5015 7.77087 53.3882 7.50287 53.1621 7.33887C52.9357 7.17514 52.6029 7.093 52.1642 7.093H51.5975V9.2346C51.8586 9.27647 52.0586 9.29727 52.1975 9.29727C52.6223 9.29727 52.9461 9.19674 53.1682 8.99514ZM50.5557 6.30127H52.1807C52.9445 6.30127 53.5293 6.457 53.9349 6.76794C54.3405 7.07914 54.5431 7.52927 54.5431 8.11807C54.5431 8.51807 54.4522 8.8674 54.2703 9.16607C54.0882 9.46474 53.8349 9.6938 53.5098 9.85354C53.185 10.0133 52.8111 10.093 52.389 10.093C52.1586 10.093 51.8946 10.0655 51.5975 10.0098V12.3346H50.5557V6.30127Z" fill="white"/>
<path d="M55.5869 6.30127H56.6285V11.4431H59.1242L59.0368 12.3346H55.5869V6.30127Z" fill="white"/>
<path d="M63.4052 11.3006C63.6969 11.1046 63.9148 10.8352 64.0593 10.492C64.2038 10.1491 64.2761 9.75657 64.2761 9.31497C64.2761 8.88164 64.2121 8.49577 64.0844 8.15657C63.9564 7.81791 63.7524 7.54777 63.4718 7.34617C63.1913 7.14511 62.8302 7.04431 62.3884 7.04431C61.9662 7.04431 61.6078 7.14617 61.3134 7.35044C61.019 7.55471 60.7982 7.82831 60.651 8.17124C60.5038 8.51444 60.4302 8.89284 60.4302 9.30671C60.4302 9.74297 60.4996 10.1334 60.6385 10.4776C60.7772 10.8222 60.9897 11.0942 61.2761 11.2942C61.562 11.4942 61.9161 11.5942 62.3385 11.5942C62.758 11.5942 63.1134 11.4963 63.4052 11.3006ZM60.7052 12.04C60.2636 11.7875 59.926 11.4326 59.6926 10.9755C59.4593 10.5187 59.3428 9.98751 59.3428 9.38164C59.3428 8.74564 59.4668 8.18964 59.7156 7.71284C59.9641 7.23657 60.3225 6.86857 60.7905 6.60884C61.2585 6.34911 61.8105 6.21924 62.4468 6.21924C63.055 6.21924 63.5788 6.34511 64.0177 6.59631C64.4564 6.84777 64.7913 7.20111 65.0217 7.65657C65.2524 8.11231 65.3676 8.64004 65.3676 9.24004C65.3676 9.88751 65.242 10.4499 64.9905 10.9275C64.739 11.4054 64.3809 11.7734 63.9156 12.0318C63.4502 12.2899 62.9038 12.4192 62.2761 12.4192C61.6705 12.4192 61.1468 12.2928 60.7052 12.04Z" fill="white"/>
<path d="M68.1587 9.1554C68.4113 9.1554 68.635 9.10634 68.8294 9.00767C69.0238 8.90927 69.1753 8.77007 69.2835 8.59087C69.3921 8.41167 69.4462 8.2042 69.4462 7.96794C69.4462 7.66554 69.3502 7.44394 69.1587 7.3034C68.967 7.1634 68.6878 7.093 68.3211 7.093H67.567V9.1554H68.1587ZM66.5254 6.30127H68.4129C69.1017 6.30127 69.6233 6.43887 69.9774 6.7138C70.3315 6.98874 70.5086 7.38207 70.5086 7.893C70.5086 8.21247 70.4446 8.4938 70.3169 8.73674C70.1891 8.97994 70.0307 9.1778 69.8419 9.3306C69.6529 9.4834 69.4587 9.59727 69.2587 9.6722L71.1129 12.3346H69.9046L68.3337 9.94314H67.567V12.3346H66.5254V6.30127Z" fill="white"/>
<path d="M71.958 6.30127H75.5122L75.4122 7.15967H72.9996V8.82207H75.2746V9.62634H72.9996V11.4679H75.5412L75.4538 12.3346H71.958V6.30127Z" fill="white"/>
<path d="M80.401 6.30127H79.3594V12.3346H80.401V6.30127Z" fill="white"/>
<path d="M83.1629 7.1722H81.292L81.3837 6.30127H86.0797L85.9837 7.1722H84.2045V12.3346H83.1629V7.1722Z" fill="white"/>
<path d="M93.3029 11.3006C93.5944 11.1046 93.8125 10.8352 93.957 10.492C94.1013 10.1491 94.1736 9.75657 94.1736 9.31497C94.1736 8.88164 94.1096 8.49577 93.9821 8.15657C93.8541 7.81791 93.6498 7.54777 93.3696 7.34617C93.0888 7.14511 92.7277 7.04431 92.2861 7.04431C91.8637 7.04431 91.5056 7.14617 91.2112 7.35044C90.9165 7.55471 90.6957 7.82831 90.5488 8.17124C90.4013 8.51444 90.3277 8.89284 90.3277 9.30671C90.3277 9.74297 90.397 10.1334 90.5362 10.4776C90.6749 10.8222 90.8874 11.0942 91.1736 11.2942C91.4597 11.4942 91.8138 11.5942 92.2362 11.5942C92.6554 11.5942 93.0112 11.4963 93.3029 11.3006ZM90.6029 12.04C90.161 11.7875 89.8237 11.4326 89.5904 10.9755C89.357 10.5187 89.2402 9.98751 89.2402 9.38164C89.2402 8.74564 89.3645 8.18964 89.6133 7.71284C89.8616 7.23657 90.22 6.86857 90.6882 6.60884C91.1562 6.34911 91.7082 6.21924 92.3445 6.21924C92.9528 6.21924 93.4762 6.34511 93.9154 6.59631C94.3541 6.84777 94.6888 7.20111 94.9194 7.65657C95.1498 8.11231 95.2653 8.64004 95.2653 9.24004C95.2653 9.88751 95.1394 10.4499 94.8882 10.9275C94.6368 11.4054 94.2784 11.7734 93.8133 12.0318C93.348 12.2899 92.8013 12.4192 92.1736 12.4192C91.568 12.4192 91.0445 12.2928 90.6029 12.04Z" fill="white"/>
<path d="M96.4238 6.30127H97.6198L100.604 10.9765C100.577 10.5322 100.566 10.1221 100.566 9.74713V6.30127H101.532V12.3346H100.374L97.3449 7.58474C97.3753 8.12367 97.3905 8.60127 97.3905 9.01807V12.3346H96.4238V6.30127Z" fill="white"/>
<path fill-rule="evenodd" clip-rule="evenodd" d="M25.9197 6.32861H14.8413C9.62266 6.32861 7.71387 8.23768 7.71387 13.4561V24.5347C7.71387 29.7531 9.62266 31.6619 14.8413 31.6619H25.9163C31.1349 31.6619 33.0472 29.7531 33.0472 24.5347V13.4561C33.0472 8.23768 31.1384 6.32861 25.9197 6.32861Z" fill="#C9202F"/>
<path d="M18.7827 21.0225H19.7987L19.2891 19.8374L18.7827 21.0225ZM18.5325 21.6198L18.2312 22.3094H17.5451L19.0043 18.9993H19.5971L21.0504 22.3094H20.3459L20.0483 21.6198H18.5325ZM29.5734 22.3073H30.2366V18.9993H29.5734V22.3073ZM26.9341 20.8857H28.1563V20.283H26.9341V19.6049H28.7083V19.0014H26.2712V22.3091H28.7723V21.706H26.9341V20.8857ZM24.2992 21.2766L23.5472 18.999H22.999L22.247 21.2766L21.5152 19.0006H20.8L21.9544 22.311H22.5107L23.2638 20.1366L24.0165 22.311H24.5779L25.7293 19.0006H25.0325L24.2992 21.2766ZM16.5328 20.895C16.5328 21.4334 16.2654 21.7212 15.7798 21.7212C15.2915 21.7212 15.0227 21.4254 15.0227 20.8721V19.0012H14.3507V20.895C14.3507 21.8268 14.8683 22.3609 15.7707 22.3609C16.6819 22.3609 17.2046 21.8166 17.2046 20.8676V18.999H16.5328V20.895ZM12.7472 18.9993H13.4189V22.3113H12.7472V20.9662H11.2296V22.3113H10.5576V18.9993H11.2296V20.3353H12.7472V18.9993Z" fill="white"/>
<path d="M20.3896 14.7845C18.0646 14.7845 16.1729 12.8927 16.1729 10.5674H16.7686C16.7686 12.5642 18.3928 14.1885 20.3896 14.1885C22.3864 14.1885 24.0107 12.5642 24.0107 10.5674H24.6064C24.6064 12.8927 22.7147 14.7845 20.3896 14.7845Z" fill="white"/>
</g>
<defs>
<clipPath id="clip0_1_2138">
<rect width="132" height="38" fill="white"/>
</clipPath>
</defs>
</svg>
