<svg width="291" height="176" viewBox="0 0 291 176" fill="none" xmlns="http://www.w3.org/2000/svg">
<circle cx="145.5" cy="145.5" r="145.5" fill="#F9F9F9"/>
<path d="M92.7242 136.3C91.7719 134.306 92.6159 131.918 94.6093 130.966L124.687 116.598C128.674 114.693 133.45 116.381 135.354 120.368L149.147 149.243C151.052 153.229 149.364 158.005 145.377 159.91L115.3 174.278C113.306 175.23 110.918 174.386 109.966 172.393L92.7242 136.3Z" fill="#007460"/>
<rect x="120.81" y="133.227" width="21.3333" height="21.3333" rx="4" transform="rotate(-25.5339 120.81 133.227)" fill="#FF4300"/>
<rect x="130.358" y="140.844" width="8" height="8" rx="1" transform="rotate(-70.5339 130.358 140.844)" fill="white"/>
<path d="M212 67.4641C213.105 65.5509 215.551 64.8954 217.464 66L259.418 90.2222C263.245 92.4314 264.556 97.3241 262.346 101.15L238.346 142.72C236.137 146.546 231.245 147.857 227.418 145.648L185.464 121.426C183.551 120.321 182.895 117.875 184 115.962L212 67.4641Z" fill="#007460"/>
<rect x="235.903" y="97.1738" width="28.4444" height="28.4444" rx="4" transform="rotate(30 235.903 97.1738)" fill="#FF4300"/>
<rect x="234.735" y="113.419" width="10.6667" height="10.6667" rx="1" transform="rotate(-15 234.735 113.419)" fill="white"/>
<path d="M92.0925 37.5121C91.4891 35.387 92.7228 33.1751 94.8479 32.5717L148.719 17.2774C152.969 16.0707 157.393 18.538 158.6 22.7883L173.894 76.6593C175.101 80.9096 172.633 85.3334 168.383 86.5401L114.512 101.834C112.387 102.438 110.175 101.204 109.572 99.079L92.0925 37.5121Z" fill="#007460"/>
<rect x="134.941" y="41.9792" width="32" height="32" rx="4" transform="rotate(-15.8496 134.941 41.9792)" fill="#FF4300"/>
<rect x="147.14" y="55.6521" width="12" height="12" rx="1" transform="rotate(-60.8496 147.14 55.6521)" fill="white"/>
</svg>
