<svg width="38" height="13" viewBox="0 0 38 13" fill="none" xmlns="http://www.w3.org/2000/svg">
<path fill-rule="evenodd" clip-rule="evenodd" d="M12.0427 9.37356V4H12.5V9.37356C12.5 10.2028 11.8516 10.875 11.0518 10.875H3.125V10.4009H11.0518C11.5991 10.4009 12.0427 9.94092 12.0427 9.37356Z" fill="#00A9A2"/>
<path d="M9.375 6.18765C9.375 7.48306 8.85014 8.65475 8.00157 9.50157C7.1533 10.3498 5.98131 10.875 4.68765 10.875H1.65609C0.742024 10.875 0 10.133 0 9.21891V3.15784C0 2.69993 0.186015 2.28569 0.485852 1.98614C0.784234 1.68602 1.19993 1.5 1.65609 1.5H4.68735C7.27643 1.5 9.375 3.59828 9.375 6.18765Z" fill="#007460"/>
<path d="M2.5 4C2.5 3.65482 2.76117 3.375 3.08333 3.375H10.6667C10.9888 3.375 11.25 3.65482 11.25 4V9C11.25 9.34518 10.9888 9.625 10.6667 9.625H3.08333C2.76117 9.625 2.5 9.34518 2.5 9V4Z" fill="#DCF3F3"/>
<path fill-rule="evenodd" clip-rule="evenodd" d="M10.6667 4H3.08333L3.08333 9H10.6667V4ZM3.08333 3.375C2.76117 3.375 2.5 3.65482 2.5 4V9C2.5 9.34518 2.76117 9.625 3.08333 9.625H10.6667C10.9888 9.625 11.25 9.34518 11.25 9V4C11.25 3.65482 10.9888 3.375 10.6667 3.375H3.08333Z" fill="#00A9A2"/>
<path d="M8.125 6.49993C8.12515 6.41076 8.09105 6.3213 8.02315 6.25355L7.12153 5.35199C7.05334 5.28395 6.96417 5.25 6.875 5.25C6.78568 5.25 6.69637 5.28395 6.62847 5.35199L5.72699 6.25326C5.6588 6.32145 5.625 6.41076 5.625 6.50007C5.625 6.58924 5.6588 6.67855 5.72699 6.74659L6.62847 7.6483C6.69651 7.7162 6.78597 7.75029 6.875 7.75C6.96417 7.75 7.05334 7.7162 7.12153 7.64801L8.02301 6.74674C8.0909 6.67855 8.125 6.58909 8.125 6.49993Z" fill="#00A9A2"/>
<path d="M11.25 4.3125C11.25 4.83027 10.8303 5.25 10.3125 5.25C9.79473 5.25 9.375 4.83027 9.375 4.3125C9.375 3.79473 9.79473 3.375 10.3125 3.375C10.8303 3.375 11.25 3.79473 11.25 4.3125Z" fill="#00A9A2"/>
<path d="M11.25 8.375C11.25 9.06536 10.8303 9.625 10.3125 9.625C9.79473 9.625 9.375 9.06536 9.375 8.375C9.375 7.68464 9.79473 7.125 10.3125 7.125C10.8303 7.125 11.25 7.68464 11.25 8.375Z" fill="#00A9A2"/>
<path d="M4.375 4.3125C4.375 4.83027 3.95527 5.25 3.4375 5.25C2.91973 5.25 2.5 4.83027 2.5 4.3125C2.5 3.79473 2.91973 3.375 3.4375 3.375C3.95527 3.375 4.375 3.79473 4.375 4.3125Z" fill="#00A9A2"/>
<path d="M4.375 8.375C4.375 9.06536 3.95527 9.625 3.4375 9.625C2.91973 9.625 2.5 9.06536 2.5 8.375C2.5 7.68464 2.91973 7.125 3.4375 7.125C3.95527 7.125 4.375 7.68464 4.375 8.375Z" fill="#00A9A2"/>
<path fill-rule="evenodd" clip-rule="evenodd" d="M13.4211 9.51829V5.25H13.75V9.51829C13.75 10.6128 12.7927 11.5 11.6118 11.5H4.375V11.1951H11.6118C12.611 11.1951 13.4211 10.4444 13.4211 9.51829Z" fill="#00A9A2"/>
<path d="M18.79 4.7C19.13 4.7 19.4367 4.73667 19.71 4.81C19.9833 4.88333 20.2 4.98333 20.36 5.11C20.52 5.23667 20.6 5.38 20.6 5.54C20.6 5.62667 20.57 5.71 20.51 5.79C20.45 5.87 20.37 5.91 20.27 5.91C20.1767 5.91 20.1 5.89333 20.04 5.86C19.9867 5.82667 19.9333 5.78333 19.88 5.73C19.8333 5.67667 19.7667 5.63 19.68 5.59C19.6 5.54333 19.4833 5.50667 19.33 5.48C19.1767 5.45333 19.0233 5.44 18.87 5.44C18.5033 5.44 18.18 5.52667 17.9 5.7C17.6267 5.87333 17.41 6.10667 17.25 6.4C17.09 6.69333 17.01 7.02667 17.01 7.4C17.01 7.77333 17.0867 8.10667 17.24 8.4C17.3933 8.69333 17.6067 8.92667 17.88 9.1C18.1533 9.27333 18.47 9.36 18.83 9.36C19.0633 9.36 19.25 9.34 19.39 9.3C19.53 9.26 19.6467 9.21333 19.74 9.16C19.86 9.09333 19.95 9.02667 20.01 8.96C20.0767 8.89333 20.1633 8.86 20.27 8.86C20.3833 8.86 20.47 8.89667 20.53 8.97C20.5967 9.04333 20.63 9.13333 20.63 9.24C20.63 9.36 20.5467 9.48667 20.38 9.62C20.2133 9.75333 19.9867 9.86667 19.7 9.96C19.42 10.0533 19.1 10.1 18.74 10.1C18.2333 10.1 17.79 9.98333 17.41 9.75C17.03 9.51 16.7333 9.18667 16.52 8.78C16.3133 8.36667 16.21 7.90667 16.21 7.4C16.21 6.89333 16.3167 6.43667 16.53 6.03C16.75 5.62333 17.0533 5.3 17.44 5.06C17.8267 4.82 18.2767 4.7 18.79 4.7ZM25.9355 4.78C26.0489 4.78 26.1422 4.82 26.2155 4.9C26.2955 4.97333 26.3355 5.06667 26.3355 5.18V9.59C26.3355 9.70333 26.2955 9.8 26.2155 9.88C26.1422 9.96 26.0489 10 25.9355 10C25.8155 10 25.7189 9.96 25.6455 9.88C25.5722 9.8 25.5355 9.70333 25.5355 9.59V8.64L25.7255 8.62C25.7255 8.76667 25.6755 8.92667 25.5755 9.1C25.4755 9.27333 25.3389 9.43667 25.1655 9.59C24.9922 9.73667 24.7855 9.86 24.5455 9.96C24.3122 10.0533 24.0589 10.1 23.7855 10.1C23.3322 10.1 22.9255 9.98333 22.5655 9.75C22.2055 9.51 21.9189 9.18667 21.7055 8.78C21.4989 8.37333 21.3955 7.91 21.3955 7.39C21.3955 6.86333 21.4989 6.4 21.7055 6C21.9189 5.59333 22.2055 5.27667 22.5655 5.05C22.9255 4.81667 23.3255 4.7 23.7655 4.7C24.0522 4.7 24.3189 4.74667 24.5655 4.84C24.8122 4.93333 25.0255 5.06 25.2055 5.22C25.3922 5.38 25.5355 5.55667 25.6355 5.75C25.7422 5.94333 25.7955 6.13667 25.7955 6.33L25.5355 6.27V5.18C25.5355 5.06667 25.5722 4.97333 25.6455 4.9C25.7189 4.82 25.8155 4.78 25.9355 4.78ZM23.8755 9.36C24.2089 9.36 24.5022 9.27333 24.7555 9.1C25.0155 8.92667 25.2155 8.69333 25.3555 8.4C25.5022 8.1 25.5755 7.76333 25.5755 7.39C25.5755 7.02333 25.5022 6.69333 25.3555 6.4C25.2155 6.1 25.0155 5.86667 24.7555 5.7C24.5022 5.52667 24.2089 5.44 23.8755 5.44C23.5489 5.44 23.2555 5.52333 22.9955 5.69C22.7422 5.85667 22.5422 6.08667 22.3955 6.38C22.2489 6.67333 22.1755 7.01 22.1755 7.39C22.1755 7.76333 22.2455 8.1 22.3855 8.4C22.5322 8.69333 22.7322 8.92667 22.9855 9.1C23.2455 9.27333 23.5422 9.36 23.8755 9.36ZM27.5281 9.18C27.4681 9.09333 27.4415 9.00333 27.4481 8.91C27.4548 8.81 27.5115 8.72333 27.6181 8.65C27.6848 8.60333 27.7615 8.58333 27.8481 8.59C27.9415 8.59667 28.0248 8.64 28.0981 8.72C28.2848 8.94 28.4981 9.11667 28.7381 9.25C28.9781 9.37667 29.2715 9.44 29.6181 9.44C29.7781 9.43333 29.9381 9.40667 30.0981 9.36C30.2581 9.31333 30.3915 9.23333 30.4981 9.12C30.6115 9 30.6681 8.84333 30.6681 8.65C30.6681 8.46333 30.6115 8.31667 30.4981 8.21C30.3848 8.09667 30.2381 8.00667 30.0581 7.94C29.8781 7.86667 29.6815 7.80333 29.4681 7.75C29.2481 7.69 29.0315 7.62333 28.8181 7.55C28.6048 7.47 28.4115 7.37333 28.2381 7.26C28.0715 7.14 27.9348 6.99333 27.8281 6.82C27.7281 6.64 27.6781 6.42333 27.6781 6.17C27.6781 5.87 27.7581 5.61 27.9181 5.39C28.0848 5.17 28.3048 5 28.5781 4.88C28.8581 4.76 29.1615 4.7 29.4881 4.7C29.6748 4.7 29.8681 4.72333 30.0681 4.77C30.2748 4.81 30.4748 4.88333 30.6681 4.99C30.8615 5.09 31.0315 5.23 31.1781 5.41C31.2381 5.47667 31.2715 5.56 31.2781 5.66C31.2848 5.76 31.2415 5.85 31.1481 5.93C31.0748 5.98333 30.9915 6.00667 30.8981 6C30.8115 5.99333 30.7381 5.96 30.6781 5.9C30.5381 5.73333 30.3615 5.60667 30.1481 5.52C29.9415 5.42667 29.7115 5.38 29.4581 5.38C29.2981 5.38 29.1415 5.40333 28.9881 5.45C28.8348 5.49667 28.7048 5.57667 28.5981 5.69C28.4981 5.79667 28.4481 5.94667 28.4481 6.14C28.4548 6.32 28.5148 6.46667 28.6281 6.58C28.7415 6.69333 28.8948 6.78667 29.0881 6.86C29.2815 6.92667 29.4948 6.99333 29.7281 7.06C29.9415 7.11333 30.1448 7.17667 30.3381 7.25C30.5381 7.31667 30.7181 7.40667 30.8781 7.52C31.0381 7.63333 31.1648 7.78 31.2581 7.96C31.3515 8.13333 31.3981 8.35333 31.3981 8.62C31.3981 8.92667 31.3115 9.19333 31.1381 9.42C30.9648 9.64 30.7348 9.81 30.4481 9.93C30.1681 10.0433 29.8648 10.1 29.5381 10.1C29.1715 10.1 28.8081 10.03 28.4481 9.89C28.0948 9.75 27.7881 9.51333 27.5281 9.18ZM35.0545 4.75C35.4945 4.75 35.8411 4.84667 36.0945 5.04C36.3545 5.22667 36.5378 5.48 36.6445 5.8C36.7578 6.11333 36.8145 6.46333 36.8145 6.85V9.59C36.8145 9.70333 36.7745 9.8 36.6945 9.88C36.6211 9.96 36.5278 10 36.4145 10C36.3011 10 36.2045 9.96 36.1245 9.88C36.0511 9.8 36.0145 9.70333 36.0145 9.59V6.85C36.0145 6.59667 35.9778 6.37 35.9045 6.17C35.8311 5.96333 35.7078 5.8 35.5345 5.68C35.3678 5.55333 35.1378 5.49 34.8445 5.49C34.5711 5.49 34.3211 5.55333 34.0945 5.68C33.8678 5.8 33.6878 5.96333 33.5545 6.17C33.4211 6.37 33.3545 6.59667 33.3545 6.85V9.59C33.3545 9.70333 33.3145 9.8 33.2345 9.88C33.1611 9.96 33.0678 10 32.9545 10C32.8411 10 32.7445 9.96 32.6645 9.88C32.5911 9.8 32.5545 9.70333 32.5545 9.59V3C32.5545 2.88667 32.5911 2.79333 32.6645 2.72C32.7445 2.64 32.8411 2.6 32.9545 2.6C33.0745 2.6 33.1711 2.64 33.2445 2.72C33.3178 2.79333 33.3545 2.88667 33.3545 3V5.99L33.1545 6.21C33.1878 6.03667 33.2611 5.86333 33.3745 5.69C33.4878 5.51 33.6311 5.35 33.8045 5.21C33.9778 5.07 34.1711 4.96 34.3845 4.88C34.5978 4.79333 34.8211 4.75 35.0545 4.75Z" fill="black"/>
</svg>
