<svg width="44" height="24" viewBox="0 0 44 24" fill="none" xmlns="http://www.w3.org/2000/svg">
<path d="M22.5035 17L1.52588e-05 17.9999L22.5035 18.9998C22.7712 19.0098 22.9951 18.5749 22.9999 18.0199C23.0048 17.47 22.7931 17.01 22.523 17C22.5181 17 22.5108 17 22.5035 17Z" fill="#FF4300"/>
<path d="M25.0067 11.0028L3.00002 12.5006L25.0067 13.9984C25.5326 14.0359 25.9776 13.3918 25.999 12.5643C26.0228 11.7367 25.6135 11.0365 25.0876 11.0028C25.0614 10.9991 25.0329 10.9991 25.0067 11.0028Z" fill="#FF4300"/>
<path d="M27.5745 5.00272L5.00002 6.99958L27.5745 8.99644C28.3166 9.06179 28.9537 8.21948 28.9976 7.11939C29.0415 6.01567 28.4752 5.06807 27.7356 5.00272C27.6843 4.99909 27.6258 4.99909 27.5745 5.00272Z" fill="#FF4300"/>
<path d="M44 12.0004C44 15.3166 42.5444 18.3161 40.191 20.484C37.8385 22.6556 34.5882 24 31.0004 24H22.5929C20.0579 24 18 22.1004 18 19.7604V4.24406C18 3.07182 18.5159 2.01136 19.3474 1.24453C20.1749 0.476199 21.3278 0 22.5929 0H30.9996C38.18 0 44 5.37158 44 12.0004Z" fill="#FF4300"/>
<g clip-path="url(#clip0_1081_946)">
<path d="M41.1453 13.9995C41.1453 13.9995 41.4342 13.4187 41.2972 13.0709C41.1602 12.7231 40.8344 12.6837 40.8344 12.6837V12.6826L40.8326 12.6802C40.8076 12.6087 40.5152 11.7969 40.1608 11.642C40.1596 11.642 40.1578 11.6408 40.156 11.6402V11.6384C39.7736 11.4735 36.2398 10.5348 36.2398 10.5348C34.7532 9.10529 33.2993 8.16362 33.0908 8.0308C32.8824 7.89798 32.4482 7.65318 31.7096 7.5823C30.8996 7.50487 25.9458 7.27139 22.1345 7.34882C22.1345 7.34882 21.5984 7.38098 21.4638 7.93848C21.3769 8.29704 21.1523 9.60382 21.054 10.8624C21.0409 11.0309 21.0302 11.1989 21.0225 11.3633C21.0153 11.4568 21.0129 11.5688 21.0117 11.6569C21.0117 11.6587 21.0117 11.6605 21.0117 11.6629C21.0064 11.8338 21.0058 11.9994 21.0106 12.1554C21.0141 12.3103 21.0606 12.8327 21.0606 12.8327H20.9194C20.9194 12.8327 20.5626 12.8404 20.699 13.523C20.7723 13.8887 20.8325 14.0328 20.8325 14.0328C20.8325 14.0328 21.0278 14.3813 21.437 14.3771L21.7449 14.3759C21.6532 14.037 21.8277 13.3592 21.8277 13.3592C22.0904 12.6266 22.4549 12.2531 22.9505 11.9613C23.4049 11.6938 24.7999 11.427 25.6963 12.2889C26.2847 12.8541 26.4837 13.66 26.5516 14.1478C26.5796 14.3509 26.5849 14.4992 26.5861 14.551L35.0903 14.691C35.0903 14.691 35.1791 13.5897 35.6061 12.953C35.8193 12.6593 36.1189 12.3847 36.5412 12.1846C37.9153 11.5324 38.994 12.3377 39.349 12.707C39.3728 12.7344 39.5425 12.9375 39.5437 12.9387C39.6599 13.0941 39.8606 13.436 39.9327 13.9983C39.9499 14.1329 39.9571 14.6487 39.9333 14.7678C39.9333 14.7678 40.8124 14.5784 41.1429 13.9989C41.1435 13.9989 41.1447 13.9989 41.1453 13.9989H41.1429H41.1447L41.1453 13.9995ZM34.8491 12.972L29.6458 12.8857L26.8708 12.8392C26.7868 12.838 26.7201 12.7719 26.7219 12.6909C26.7231 12.6105 26.7922 12.5462 26.8762 12.5479L29.6464 12.5938L34.8544 12.6802C34.9384 12.6814 35.0051 12.7481 35.0033 12.8285C35.0022 12.9089 34.9331 12.9732 34.8491 12.972ZM35.0039 11.2954C33.6519 11.1876 30.0627 10.8445 30.0627 10.8445L30.0508 8.34588C30.0258 8.00042 30.3742 8.06892 30.3742 8.06892L31.9109 8.18089C32.684 8.25832 33.1141 8.56507 33.3517 8.74494C33.7335 9.03441 35.2142 10.2995 35.4179 10.5288C35.6216 10.7581 36.0379 11.4133 35.0045 11.2966L35.0039 11.2954Z" fill="white"/>
<path d="M24.0652 15.9983C24.9862 15.9983 25.7329 15.2517 25.7329 14.3306C25.7329 13.4096 24.9862 12.6629 24.0652 12.6629C23.1441 12.6629 22.3975 13.4096 22.3975 14.3306C22.3975 15.2517 23.1441 15.9983 24.0652 15.9983Z" fill="white"/>
<path d="M37.5857 15.9983C38.5068 15.9983 39.2534 15.2517 39.2534 14.3306C39.2534 13.4096 38.5068 12.6629 37.5857 12.6629C36.6646 12.6629 35.918 13.4096 35.918 14.3306C35.918 15.2517 36.6646 15.9983 37.5857 15.9983Z" fill="white"/>
</g>
<defs>
<clipPath id="clip0_1081_946">
<rect width="20.6667" height="8.66501" fill="white" transform="translate(20.667 7.33334)"/>
</clipPath>
</defs>
</svg>
