<svg width="128" height="38" viewBox="0 0 128 38" fill="none" xmlns="http://www.w3.org/2000/svg">
<path d="M123.259 0H4.74074C2.1225 0 0 2.12665 0 4.75V33.25C0 35.8734 2.1225 38 4.74074 38H123.259C125.877 38 128 35.8734 128 33.25V4.75C128 2.12665 125.877 0 123.259 0Z" fill="black"/>
<path d="M44.9615 9.7279C44.9776 10.0763 44.9229 10.4244 44.8007 10.7511C44.6784 11.0777 44.4912 11.376 44.2504 11.6279C43.9815 11.9078 43.6568 12.1277 43.2974 12.2734C42.9379 12.4191 42.5519 12.4872 42.1645 12.4734C41.5766 12.4688 41.0032 12.2905 40.516 11.9607C40.0289 11.631 39.6497 11.1646 39.4259 10.6199C39.2022 10.0752 39.1439 9.47641 39.2583 8.89863C39.3727 8.32086 39.6547 7.78977 40.0691 7.3719C40.3414 7.09334 40.6678 6.87374 41.0283 6.72668C41.3887 6.57961 41.7754 6.50821 42.1645 6.5169C42.5653 6.51556 42.9622 6.59639 43.3307 6.7544C43.6738 6.89306 43.9792 7.11118 44.2219 7.3909L43.7194 7.8944C43.5302 7.66886 43.2912 7.49052 43.0213 7.37345C42.7514 7.25639 42.4581 7.20382 42.1645 7.2199C41.8683 7.21844 41.5749 7.27693 41.3018 7.39184C41.0288 7.50675 40.7817 7.67573 40.5754 7.88864C40.3691 8.10155 40.2078 8.35401 40.1013 8.63088C39.9947 8.90775 39.9451 9.20333 39.9553 9.4999C39.9491 9.94273 40.0739 10.3775 40.314 10.7493C40.5541 11.1211 40.8987 11.4134 41.3044 11.5892C41.7101 11.765 42.1587 11.8165 42.5935 11.7371C43.0284 11.6578 43.4301 11.4512 43.7479 11.1434C44.0396 10.8266 44.2079 10.4152 44.2219 9.9844H42.1645V9.3004H44.9236C44.9489 9.44149 44.9616 9.58455 44.9615 9.7279ZM49.304 7.3529H46.744V9.1579H49.0765V9.8419H46.744V11.6469H49.304V12.3499H45.9855V6.6499H49.304V7.3529ZM52.4139 12.3499H51.6839V7.3529H50.091V6.6499H54.0448V7.3529H52.4139V12.3499ZM56.8323 12.3499V6.6499H57.5624V12.3499H56.8323ZM60.8051 12.3499H60.075V7.3529H58.4821V6.6499H62.3885V7.3529H60.8051V12.3499ZM69.7935 11.6089C69.2392 12.1612 68.4893 12.4712 67.7076 12.4712C66.9259 12.4712 66.1759 12.1612 65.6217 11.6089C65.0829 11.0375 64.7827 10.2812 64.7827 9.49515C64.7827 8.70908 65.0829 7.9528 65.6217 7.3814C65.8949 7.10566 66.2198 6.88681 66.5778 6.73746C66.9358 6.58812 67.3198 6.51123 67.7076 6.51123C68.0954 6.51123 68.4793 6.58812 68.8373 6.73746C69.1953 6.88681 69.5203 7.10566 69.7935 7.3814C70.3344 7.95171 70.636 8.7084 70.636 9.49515C70.636 10.2819 70.3344 11.0386 69.7935 11.6089ZM66.1621 11.1339C66.5726 11.5435 67.1283 11.7734 67.7076 11.7734C68.2869 11.7734 68.8426 11.5435 69.2531 11.1339C69.6581 10.6865 69.8825 10.104 69.8825 9.4999C69.8825 8.8958 69.6581 8.31333 69.2531 7.8659C68.8426 7.45633 68.2869 7.22639 67.7076 7.22639C67.1283 7.22639 66.5726 7.45633 66.1621 7.8659C65.757 8.31333 65.5326 8.8958 65.5326 9.4999C65.5326 10.104 65.757 10.6865 66.1621 11.1339ZM71.6614 12.3499V6.6499H72.5526L75.3212 11.0864V6.6499H76.0513V12.3499H75.2928L72.4009 7.7044V12.3499H71.6614Z" fill="white" stroke="white" stroke-width="0.2" stroke-miterlimit="10"/>
<path d="M64.6071 20.6623C63.8109 20.666 63.0337 20.906 62.3736 21.3519C61.7134 21.7979 61.1998 22.4297 60.8978 23.1678C60.5957 23.9059 60.5186 24.7171 60.6762 25.499C60.8338 26.281 61.2191 26.9986 61.7834 27.5614C62.3477 28.1241 63.0657 28.5068 63.8469 28.661C64.628 28.8153 65.4373 28.7342 66.1725 28.4281C66.9077 28.1219 67.5359 27.6044 67.9779 26.9409C68.4198 26.2774 68.6557 25.4975 68.6557 24.6998C68.6634 24.1658 68.5638 23.6357 68.3629 23.1411C68.1619 22.6465 67.8637 22.1975 67.4859 21.8208C67.1082 21.4441 66.6586 21.1474 66.164 20.9483C65.6695 20.7493 65.14 20.652 64.6071 20.6623ZM64.6071 27.1508C64.1175 27.1851 63.6288 27.071 63.2048 26.8234C62.7807 26.5758 62.4408 26.206 62.2292 25.7623C62.0176 25.3185 61.9441 24.8213 62.0184 24.3351C62.0926 23.849 62.311 23.3964 62.6454 23.0364C62.9797 22.6763 63.4144 22.4253 63.8929 22.316C64.3715 22.2067 64.8718 22.2442 65.3288 22.4236C65.7858 22.6031 66.1784 22.9161 66.4555 23.322C66.7326 23.7279 66.8815 24.208 66.8827 24.6998C66.8979 25.0114 66.8508 25.3229 66.744 25.616C66.6372 25.909 66.4729 26.1777 66.2608 26.4061C66.0487 26.6346 65.7931 26.8181 65.5091 26.946C65.2251 27.0739 64.9184 27.1435 64.6071 27.1508ZM55.7799 20.6623C54.9833 20.6641 54.2051 20.9025 53.5437 21.3473C52.8823 21.7921 52.3673 22.4233 52.0637 23.1613C51.7602 23.8992 51.6817 24.7107 51.8383 25.4933C51.9948 26.2758 52.3794 26.9943 52.9433 27.5581C53.5072 28.1218 54.2253 28.5054 55.0067 28.6604C55.7881 28.8154 56.5978 28.7349 57.3336 28.429C58.0693 28.1231 58.6981 27.6056 59.1405 26.9419C59.5829 26.2781 59.819 25.4979 59.819 24.6998C59.8267 24.1658 59.7271 23.6357 59.5261 23.1411C59.3252 22.6465 59.0269 22.1975 58.6492 21.8208C58.2714 21.4441 57.8219 21.1474 57.3273 20.9483C56.8327 20.7493 56.3032 20.652 55.7704 20.6623H55.7799ZM55.7799 27.1508C55.29 27.187 54.8005 27.0746 54.3753 26.8283C53.95 26.5819 53.6087 26.213 53.3956 25.7696C53.1825 25.3261 53.1076 24.8286 53.1807 24.3419C53.2537 23.8552 53.4713 23.4018 53.8052 23.0408C54.139 22.6797 54.5735 22.4277 55.0523 22.3176C55.5311 22.2074 56.0318 22.2443 56.4894 22.4233C56.947 22.6023 57.3402 22.9152 57.6178 23.3212C57.8954 23.7272 58.0446 24.2076 58.0459 24.6998C58.0612 25.0114 58.014 25.3229 57.9072 25.616C57.8004 25.909 57.6362 26.1777 57.4241 26.4061C57.212 26.6346 56.9564 26.8181 56.6724 26.946C56.3884 27.0739 56.0817 27.1435 55.7704 27.1508H55.7799ZM45.2649 21.9068V23.6168H49.3609C49.2967 24.4222 48.9625 25.1822 48.4127 25.7733C48.003 26.1915 47.5103 26.5191 46.9665 26.7351C46.4228 26.9511 45.8399 27.0506 45.2554 27.0273C44.0484 27.0273 42.8908 26.5468 42.0373 25.6917C41.1838 24.8365 40.7043 23.6767 40.7043 22.4673C40.7043 21.2579 41.1838 20.098 42.0373 19.2429C42.8908 18.3877 44.0484 17.9073 45.2554 17.9073C46.4101 17.8884 47.525 18.3291 48.3559 19.1328L49.56 17.9263C48.9992 17.3572 48.33 16.9068 47.5922 16.6017C46.8544 16.2965 46.063 16.1428 45.2649 16.1498C44.422 16.1169 43.5811 16.2549 42.7927 16.5554C42.0043 16.8559 41.2845 17.3128 40.6766 17.8987C40.0686 18.4846 39.5849 19.1875 39.2546 19.9652C38.9242 20.7428 38.7539 21.5793 38.7539 22.4245C38.7539 23.2697 38.9242 24.1062 39.2546 24.8839C39.5849 25.6616 40.0686 26.3644 40.6766 26.9503C41.2845 27.5362 42.0043 27.9931 42.7927 28.2936C43.5811 28.5942 44.422 28.7321 45.2649 28.6993C46.0765 28.736 46.8865 28.5982 47.6404 28.295C48.3944 27.9919 49.0748 27.5304 49.6358 26.9418C50.6292 25.8482 51.1596 24.4107 51.115 22.9328C51.118 22.5727 51.0863 22.2132 51.0201 21.8593L45.2649 21.9068ZM88.2255 23.2368C87.9782 22.5079 87.5158 21.8714 86.8995 21.4117C86.2832 20.9519 85.542 20.6906 84.7742 20.6623C84.2556 20.6613 83.7422 20.7668 83.2659 20.9725C82.7896 21.1781 82.3605 21.4795 82.005 21.8579C81.6496 22.2363 81.3754 22.6837 81.1993 23.1725C81.0233 23.6613 80.9492 24.1811 80.9816 24.6998C80.9701 25.2307 81.0655 25.7586 81.2621 26.2518C81.4588 26.745 81.7526 27.1934 82.1261 27.5703C82.4996 27.9471 82.945 28.2447 83.4358 28.4452C83.9267 28.6457 84.4528 28.7451 84.9828 28.7373C85.646 28.7409 86.2998 28.5796 86.8856 28.2679C87.4713 27.9562 87.9708 27.5038 88.3392 26.9513L86.9644 26.0013C86.7592 26.344 86.4687 26.6275 86.1214 26.824C85.774 27.0205 85.3817 27.1233 84.9828 27.1223C84.5721 27.138 84.1662 27.0295 83.8179 26.8109C83.4695 26.5923 83.1949 26.2738 83.0296 25.8968L88.4246 23.6643L88.2255 23.2368ZM82.7262 24.5858C82.707 24.2919 82.7465 23.9972 82.8424 23.7188C82.9383 23.4405 83.0886 23.1841 83.2846 22.9647C83.4807 22.7453 83.7184 22.5673 83.984 22.4411C84.2495 22.3149 84.5375 22.243 84.8311 22.2298C85.1369 22.2096 85.442 22.2798 85.7083 22.4318C85.9746 22.5838 86.1905 22.8109 86.3292 23.0848L82.7262 24.5858ZM78.3458 28.4998H80.1188V16.6248H78.3458V28.4998ZM75.4444 21.5648H75.3781C75.1108 21.2654 74.7835 21.026 74.4175 20.8623C74.0515 20.6986 73.655 20.6142 73.2542 20.6148C72.2181 20.6651 71.241 21.113 70.5254 21.8655C69.8099 22.6181 69.4107 23.6176 69.4107 24.657C69.4107 25.6964 69.8099 26.696 70.5254 27.4485C71.241 28.2011 72.2181 28.6489 73.2542 28.6993C73.656 28.706 74.0544 28.6245 74.4213 28.4604C74.7883 28.2962 75.1148 28.0535 75.3781 27.7493H75.435V28.3288C75.435 29.8773 74.6101 30.7038 73.2827 30.7038C72.8406 30.6934 72.4115 30.5515 72.0502 30.296C71.6889 30.0405 71.4116 29.6831 71.2536 29.2693L69.7081 29.9153C69.9991 30.6243 70.4948 31.2301 71.1316 31.655C71.7685 32.0798 72.5176 32.3043 73.2827 32.2998C75.3591 32.2998 77.0753 31.0743 77.0753 28.0913V20.8998H75.4444V21.5648ZM73.4154 27.1508C72.8038 27.0968 72.2346 26.8152 71.8199 26.3615C71.4053 25.9078 71.1753 25.3149 71.1753 24.6998C71.1753 24.0846 71.4053 23.4917 71.8199 23.0381C72.2346 22.5844 72.8038 22.3028 73.4154 22.2488C73.7186 22.2644 74.0157 22.3406 74.2891 22.473C74.5625 22.6054 74.8066 22.7913 75.0072 23.0197C75.2078 23.2481 75.3607 23.5144 75.457 23.803C75.5532 24.0915 75.5909 24.3964 75.5677 24.6998C75.5936 25.0044 75.5575 25.3112 75.4617 25.6015C75.3658 25.8918 75.2122 26.1596 75.0102 26.3887C74.8081 26.6178 74.5617 26.8034 74.286 26.9344C74.0102 27.0654 73.7109 27.139 73.4059 27.1508H73.4154ZM96.5312 16.6248H92.293V28.4998H94.0661V23.9968H96.5407C97.046 24.0331 97.5534 23.9648 98.0312 23.7961C98.509 23.6273 98.947 23.3617 99.3179 23.0159C99.6887 22.6701 99.9845 22.2514 100.187 21.786C100.389 21.3205 100.493 20.8184 100.493 20.3108C100.493 19.8032 100.389 19.301 100.187 18.8356C99.9845 18.3702 99.6887 17.9515 99.3179 17.6057C98.947 17.2598 98.509 16.9942 98.0312 16.8255C97.5534 16.6567 97.046 16.5884 96.5407 16.6248H96.5312ZM96.5312 22.3248H94.0566V18.2778H96.5692C97.1086 18.2778 97.6259 18.4925 98.0073 18.8746C98.3887 19.2568 98.603 19.7751 98.603 20.3155C98.603 20.856 98.3887 21.3743 98.0073 21.7564C97.6259 22.1386 97.1086 22.3533 96.5692 22.3533L96.5312 22.3248ZM107.463 20.6148C106.818 20.5761 106.175 20.7272 105.614 21.0496C105.053 21.372 104.599 21.8515 104.306 22.4293L105.88 23.0848C106.035 22.7982 106.27 22.563 106.556 22.4078C106.842 22.2527 107.168 22.1842 107.492 22.2108C107.717 22.1844 107.945 22.2033 108.163 22.2662C108.38 22.3291 108.583 22.4348 108.76 22.5772C108.937 22.7196 109.083 22.8957 109.191 23.0954C109.299 23.2951 109.366 23.5143 109.388 23.7403V23.8638C108.819 23.5617 108.184 23.405 107.539 23.4078C105.842 23.4078 104.126 24.3578 104.126 26.0773C104.143 26.4439 104.233 26.8035 104.39 27.1347C104.548 27.4659 104.771 27.762 105.045 28.0056C105.319 28.2491 105.639 28.4352 105.986 28.5527C106.333 28.6702 106.7 28.7168 107.065 28.6898C107.512 28.7219 107.959 28.633 108.359 28.4324C108.759 28.2318 109.098 27.9269 109.341 27.5498H109.398V28.4998H111.104V23.9303C111.104 21.8498 109.53 20.6433 107.511 20.6433L107.463 20.6148ZM107.245 27.1223C106.667 27.1223 105.861 26.8278 105.861 26.1153C105.861 25.1653 106.866 24.8518 107.757 24.8518C108.321 24.8378 108.877 24.9756 109.369 25.2508C109.31 25.7651 109.067 26.2406 108.686 26.5898C108.304 26.9389 107.809 27.1382 107.293 27.1508L107.245 27.1223ZM117.324 20.8998L115.295 26.0488H115.238L113.133 20.8998H111.237L114.394 28.1008L112.593 32.1003H114.442L119.296 20.8998H117.324ZM101.386 28.4998H103.159V16.6248H101.386V28.4998Z" fill="white"/>
<path d="M9.89853 7.16318C9.5895 7.53473 9.43351 8.01039 9.46238 8.49318V29.5072C9.43351 29.99 9.5895 30.4656 9.89853 30.8372L9.9649 30.9037L21.7125 19.1427V18.8672L9.9649 7.09668L9.89853 7.16318Z" fill="url(#paint0_linear_1_2125)"/>
<path d="M25.6003 23.0661L21.7129 19.1426V18.8671L25.6003 14.9341L25.6856 14.9816L30.341 17.6321C31.6684 18.3826 31.6684 19.6176 30.341 20.3776L25.7046 23.0186L25.6003 23.0661Z" fill="url(#paint1_linear_1_2125)"/>
<path d="M25.7136 23.009L21.7124 19L9.89844 30.837C10.169 31.0753 10.5142 31.2114 10.8743 31.2218C11.2343 31.2322 11.5868 31.1163 11.8706 30.894L25.723 23.009" fill="url(#paint2_linear_1_2125)"/>
<path d="M25.7142 14.9908L11.8618 7.10583C11.578 6.88354 11.2256 6.76758 10.8655 6.77799C10.5054 6.7884 10.1602 6.92452 9.88965 7.16283L21.7131 18.9998L25.7142 14.9908Z" fill="url(#paint3_linear_1_2125)"/>
<path opacity="0.2" d="M25.5998 22.9233L11.8611 30.7608C11.5874 30.9659 11.2547 31.0767 10.913 31.0767C10.5712 31.0767 10.2385 30.9659 9.96481 30.7608L9.89844 30.8273L9.96481 30.8938C10.2379 31.1004 10.5708 31.2121 10.913 31.2121C11.2551 31.2121 11.588 31.1004 11.8611 30.8938L25.7135 23.0088L25.5998 22.9233Z" fill="black"/>
<path opacity="0.12" d="M9.89853 30.704C9.5895 30.3324 9.43351 29.8568 9.46238 29.374V29.5165C9.43351 29.9993 9.5895 30.475 9.89853 30.8465L9.9649 30.78L9.89853 30.704ZM30.3406 20.235L25.5999 22.9235L25.6852 23.009L30.3406 20.368C30.6048 20.2437 30.8315 20.0517 30.998 19.8115C31.1645 19.5714 31.2648 19.2914 31.2888 19C31.2354 19.2648 31.1222 19.5138 30.9579 19.7279C30.7935 19.942 30.5823 20.1154 30.3406 20.235Z" fill="black"/>
<path opacity="0.25" d="M11.8614 7.23882L30.3408 17.7648C30.5826 17.8844 30.7937 18.0579 30.9581 18.272C31.1225 18.486 31.2357 18.735 31.289 18.9998C31.265 18.7084 31.1647 18.4285 30.9982 18.1883C30.8317 17.9481 30.605 17.7562 30.3408 17.6318L11.8614 7.10582C10.534 6.35532 9.45312 6.98232 9.45312 8.50232V8.64482C9.48157 7.11532 10.5435 6.48832 11.8614 7.23882Z" fill="white"/>
<defs>
<linearGradient id="paint0_linear_1_2125" x1="20.6695" y1="8.27468" x2="4.72853" y2="24.1846" gradientUnits="userSpaceOnUse">
<stop stop-color="#00A0FF"/>
<stop offset="0.01" stop-color="#00A1FF"/>
<stop offset="0.26" stop-color="#00BEFF"/>
<stop offset="0.51" stop-color="#00D2FF"/>
<stop offset="0.76" stop-color="#00DFFF"/>
<stop offset="1" stop-color="#00E3FF"/>
</linearGradient>
<linearGradient id="paint1_linear_1_2125" x1="32.0761" y1="19.0001" x2="9.14045" y2="19.0001" gradientUnits="userSpaceOnUse">
<stop stop-color="#FFE000"/>
<stop offset="0.41" stop-color="#FFBD00"/>
<stop offset="0.78" stop-color="#FFA500"/>
<stop offset="1" stop-color="#FF9C00"/>
</linearGradient>
<linearGradient id="paint2_linear_1_2125" x1="23.5423" y1="21.185" x2="1.92036" y2="42.7553" gradientUnits="userSpaceOnUse">
<stop stop-color="#FF3A44"/>
<stop offset="1" stop-color="#C31162"/>
</linearGradient>
<linearGradient id="paint3_linear_1_2125" x1="6.92194" y1="0.170826" x2="16.5739" y2="9.80399" gradientUnits="userSpaceOnUse">
<stop stop-color="#32A071"/>
<stop offset="0.07" stop-color="#2DA771"/>
<stop offset="0.48" stop-color="#15CF74"/>
<stop offset="0.8" stop-color="#06E775"/>
<stop offset="1" stop-color="#00F076"/>
</linearGradient>
</defs>
</svg>
