<svg width="174" height="54" viewBox="0 0 174 54" fill="none" xmlns="http://www.w3.org/2000/svg">
<path d="M52.6137 27.0146C52.6137 34.214 49.6681 40.7258 44.9058 45.4321C40.1452 50.1465 33.5679 53.0651 26.3077 53.0651H9.29419C4.16433 53.0651 0 48.9412 0 43.8612V10.176C0 7.63116 1.04394 5.32897 2.72667 3.6642C4.40122 1.99621 6.73416 0.962402 9.29419 0.962402H26.306C40.8363 0.962402 52.6137 12.6238 52.6137 27.0146Z" fill="white"/>
<path d="M39.626 27.0164C39.6276 28.0065 39.2453 28.9999 38.484 29.7522L28.3746 39.7634C27.61 40.5189 26.6102 40.8959 25.6103 40.8959C24.6089 40.8959 23.6074 40.5189 22.8461 39.7634L12.7383 29.7554C11.9737 28.9983 11.5947 28.0065 11.5947 27.0148C11.5947 26.0246 11.9737 25.0329 12.7383 24.2774L22.8461 14.2645C23.609 13.5106 24.6121 13.132 25.6103 13.1353C26.6102 13.1353 27.61 13.5106 28.3746 14.2678L38.4824 24.2758C39.2437 25.0329 39.626 26.0263 39.626 27.0164Z" fill="#FF4300"/>
<path d="M171.951 30.3311C170.821 30.3311 169.903 31.2387 169.903 32.3598V42.769L157.856 30.928C157.521 30.598 157.099 30.4103 156.663 30.3569C156.565 30.3424 156.464 30.3327 156.362 30.3327C155.232 30.3327 154.315 31.2403 154.315 32.3615V47.6258C154.315 48.7454 155.232 49.653 156.362 49.653C157.493 49.653 158.411 48.7454 158.411 47.6258V37.1891L170.502 49.0722C170.904 49.4669 171.429 49.6627 171.951 49.6611H171.953C173.084 49.6595 173.998 48.7518 173.998 47.6339V32.3631C173.998 31.2403 173.082 30.3311 171.951 30.3311Z" fill="white"/>
<path d="M102.439 30.3311C101.308 30.3311 100.39 31.2387 100.39 32.3598V39.9944C100.39 43.0862 97.8496 45.6019 94.7276 45.6019C91.6056 45.6019 89.0651 43.0862 89.0651 39.9944V32.3598C89.0651 31.2403 88.1486 30.3311 87.0165 30.3311C85.8859 30.3311 84.9678 31.2387 84.9678 32.3598V39.9944C84.9678 45.3236 89.3461 49.6578 94.7259 49.6578C100.107 49.6578 104.484 45.322 104.484 39.9944V32.3598C104.487 31.2403 103.569 30.3311 102.439 30.3311Z" fill="white"/>
<path d="M71.6247 30.3311H66.6664C64.0198 30.3311 61.8682 32.4634 61.8682 35.0827V44.9078C61.8682 47.5271 64.0214 49.6595 66.6664 49.6595H71.6247C77.0061 49.6595 81.3829 45.3236 81.3829 39.9961C81.3829 34.6653 77.0045 30.3311 71.6247 30.3311ZM71.6247 45.6035H66.6664C66.2792 45.6035 65.9639 45.2913 65.9639 44.9078V35.0827C65.9639 34.6992 66.2792 34.387 66.6664 34.387H71.6247C74.7467 34.387 77.2871 36.9027 77.2871 39.9944C77.2871 43.0878 74.7467 45.6035 71.6247 45.6035Z" fill="white"/>
<path d="M140.971 30.3311C135.59 30.3311 131.213 34.6669 131.213 39.9944V47.6291C131.213 48.7486 132.129 49.6578 133.26 49.6578C134.39 49.6578 135.309 48.7502 135.309 47.6291V44.5762H146.635V47.6291C146.635 48.7486 147.552 49.6578 148.682 49.6578C149.813 49.6578 150.731 48.7502 150.731 47.6291V39.9944C150.731 34.6669 146.353 30.3311 140.971 30.3311ZM135.309 40.5219V39.9961C135.309 36.9044 137.849 34.3886 140.971 34.3886C144.093 34.3886 146.634 36.9044 146.634 39.9961V40.5219H135.309Z" fill="white"/>
<path d="M120.139 38.8956L126.793 34.0032C127.702 33.3351 127.891 32.065 127.216 31.1655C126.542 30.266 125.259 30.0783 124.351 30.7465L112.17 39.7029V32.3579C112.17 31.2383 111.253 30.3291 110.123 30.3291C108.992 30.3291 108.074 31.2367 108.074 32.3579V47.564C108.074 48.6836 108.991 49.5912 110.123 49.5912C111.253 49.5912 112.17 48.6836 112.17 47.564V44.7538L116.829 41.3272L124.083 49.0087C124.486 49.4359 125.032 49.651 125.579 49.651C126.081 49.651 126.583 49.4698 126.978 49.1042C127.805 48.339 127.847 47.056 127.074 46.2374L120.139 38.8956Z" fill="white"/>
<path d="M171.954 4.3667C170.823 4.3667 169.905 5.27431 169.905 6.39548V21.6016C169.905 22.7212 170.822 23.6304 171.954 23.6304C173.084 23.6304 174.001 22.7228 174.001 21.6016V6.39386C174.001 5.27431 173.084 4.3667 171.954 4.3667Z" fill="white"/>
<path d="M133.256 23.6288H140.962H142.878H160.426C163.677 23.6288 166.322 21.0095 166.322 17.79V6.39386C166.322 5.27431 165.406 4.3667 164.275 4.3667C163.144 4.3667 162.226 5.27431 162.226 6.39386V17.79C162.226 18.7736 161.419 19.5728 160.426 19.5728H149.745C150.344 18.4792 150.684 17.227 150.684 15.8971C150.684 11.6341 147.181 8.1654 142.877 8.1654H135.857C134.726 8.1654 133.808 9.07301 133.808 10.1942C133.808 11.3137 134.724 12.2213 135.857 12.2213H142.877C144.924 12.2213 146.588 13.8699 146.588 15.8971C146.588 17.9242 144.924 19.5728 142.877 19.5728H140.96H133.256C132.125 19.5728 131.207 20.4804 131.207 21.6C131.209 22.7212 132.125 23.6288 133.256 23.6288Z" fill="white"/>
<path d="M125.577 4.36377H98.5393C95.2932 4.36377 92.6514 6.97983 92.6514 10.1945C92.6514 13.4091 95.2932 16.0252 98.5393 16.0252H114.558H120.585H121.732C122.72 16.0252 123.524 16.8212 123.524 17.8C123.524 18.7788 122.72 19.5748 121.732 19.5748H110.33H109.575H90.8642C89.8709 19.5748 89.0638 18.7755 89.0638 17.7919V6.39417C89.0638 5.27462 88.1473 4.36539 87.0168 4.36539C85.8862 4.36539 84.9697 5.273 84.9697 6.39417V17.7903C84.9697 21.0098 87.6147 23.6291 90.8658 23.6291H109.575H110.33H121.732C124.978 23.6291 127.619 21.013 127.619 17.7984C127.619 14.5837 124.978 11.9676 121.732 11.9676H120.585H114.558H98.5393C97.5509 11.9676 96.7472 11.1717 96.7472 10.1929C96.7472 9.21407 97.5509 8.41809 98.5393 8.41809H125.576C126.706 8.41809 127.623 7.51048 127.623 6.39093C127.624 5.27138 126.708 4.36377 125.577 4.36377Z" fill="white"/>
<path d="M79.3358 8.40381C78.2053 8.40381 77.2871 9.31142 77.2871 10.4326V13.966C77.2871 17.0577 74.7467 19.5734 71.6247 19.5734C68.5027 19.5734 65.9622 17.0577 65.9622 13.966V10.4326C65.9622 9.31304 65.0457 8.40381 63.9152 8.40381C62.7847 8.40381 61.8682 9.31142 61.8682 10.4326V13.966C61.8682 19.2951 66.2465 23.6294 71.6263 23.6294C77.0061 23.6294 81.3845 19.2935 81.3845 13.966V10.4326C81.3829 9.31142 80.4663 8.40381 79.3358 8.40381Z" fill="white"/>
<path d="M71.021 11.2137C71.1892 11.3803 71.4098 11.4628 71.6287 11.4628C71.8476 11.4628 72.0698 11.3803 72.2365 11.2137L74.4616 9.01018C74.6282 8.84516 74.7132 8.62514 74.7132 8.40834C74.7132 8.18993 74.6298 7.97153 74.4616 7.80651L72.2381 5.60462C72.0698 5.43798 71.8493 5.35547 71.6303 5.35547C71.4098 5.35547 71.1892 5.43798 71.0226 5.60462L68.7975 7.80812C68.6292 7.97476 68.5459 8.19317 68.5459 8.40996C68.5459 8.62837 68.6292 8.84678 68.7975 9.01342L71.021 11.2137Z" fill="white"/>
</svg>
