<svg width="149" height="46" viewBox="0 0 149 46" fill="none" xmlns="http://www.w3.org/2000/svg">
<path d="M45.0533 23.0007C45.0533 29.1656 42.531 34.7417 38.453 38.7717C34.3765 42.8087 28.7443 45.3079 22.5274 45.3079H7.95865C3.56593 45.3079 0 41.7766 0 37.4265V8.58181C0 6.40262 0.893932 4.43125 2.33485 3.0057C3.76878 1.57739 5.76649 0.692139 7.95865 0.692139H22.526C34.9683 0.692139 45.0533 10.6779 45.0533 23.0007Z" fill="#007460"/>
<path d="M33.93 23.0026C33.9314 23.8505 33.6041 24.7011 32.9521 25.3453L24.2954 33.9179C23.6407 34.5649 22.7845 34.8877 21.9284 34.8877C21.0708 34.8877 20.2133 34.5649 19.5614 33.9179L10.906 25.3481C10.2513 24.6997 9.92676 23.8505 9.92676 23.0012C9.92676 22.1534 10.2513 21.3042 10.906 20.6572L19.5614 12.0832C20.2147 11.4376 21.0736 11.1134 21.9284 11.1162C22.7845 11.1162 23.6407 11.4376 24.2954 12.0859L32.9507 20.6558C33.6027 21.3042 33.93 22.1548 33.93 23.0026Z" fill="#FF4300"/>
<path d="M147.247 25.8416C146.279 25.8416 145.493 26.6188 145.493 27.5789V36.4923L135.177 26.3528C134.89 26.0702 134.529 25.9095 134.156 25.8638C134.072 25.8513 133.985 25.843 133.898 25.843C132.93 25.843 132.146 26.6202 132.146 27.5803V40.6512C132.146 41.6099 132.93 42.3871 133.898 42.3871C134.866 42.3871 135.653 41.6099 135.653 40.6512V31.7142L146.006 41.8897C146.35 42.2278 146.8 42.3954 147.247 42.394H147.249C148.217 42.3926 149 41.6154 149 40.6581V27.5816C149 26.6202 148.215 25.8416 147.247 25.8416Z" fill="#007460"/>
<path d="M87.7202 25.8416C86.7521 25.8416 85.9659 26.6188 85.9659 27.5789V34.1164C85.9659 36.7639 83.7905 38.9181 81.1171 38.9181C78.4437 38.9181 76.2683 36.7639 76.2683 34.1164V27.5789C76.2683 26.6202 75.4835 25.8416 74.5141 25.8416C73.546 25.8416 72.7598 26.6188 72.7598 27.5789V34.1164C72.7598 38.6798 76.509 42.3912 81.1157 42.3912C85.7239 42.3912 89.4717 38.6784 89.4717 34.1164V27.5789C89.4745 26.6202 88.6883 25.8416 87.7202 25.8416Z" fill="#007460"/>
<path d="M61.3331 25.8402H57.0872C54.8209 25.8402 52.9785 27.6662 52.9785 29.9091V38.3224C52.9785 40.5653 54.8223 42.3912 57.0872 42.3912H61.3331C65.9412 42.3912 69.689 38.6784 69.689 34.1164C69.689 29.5516 65.9398 25.8402 61.3331 25.8402ZM61.3331 38.9181H57.0872C56.7557 38.9181 56.4857 38.6507 56.4857 38.3224V29.9091C56.4857 29.5807 56.7557 29.3134 57.0872 29.3134H61.3331C64.0065 29.3134 66.1818 31.4676 66.1818 34.115C66.1818 36.7639 64.0065 38.9181 61.3331 38.9181Z" fill="#007460"/>
<path d="M120.715 25.8416C116.107 25.8416 112.359 29.5544 112.359 34.1164V40.654C112.359 41.6127 113.144 42.3912 114.112 42.3912C115.08 42.3912 115.867 41.614 115.867 40.654V38.0398H125.566V40.654C125.566 41.6127 126.35 42.3912 127.318 42.3912C128.286 42.3912 129.073 41.614 129.073 40.654V34.1164C129.073 29.5544 125.323 25.8416 120.715 25.8416ZM115.867 34.5681V34.1178C115.867 31.4704 118.042 29.3161 120.715 29.3161C123.389 29.3161 125.564 31.4704 125.564 34.1178V34.5681H115.867Z" fill="#007460"/>
<path d="M102.876 33.1748L108.574 28.9854C109.352 28.4133 109.514 27.3258 108.936 26.5555C108.359 25.7852 107.261 25.6245 106.483 26.1967L96.0521 33.8661V27.5765C96.0521 26.6178 95.2673 25.8393 94.2992 25.8393C93.3311 25.8393 92.5449 26.6165 92.5449 27.5765V40.5976C92.5449 41.5563 93.3297 42.3334 94.2992 42.3334C95.2673 42.3334 96.0521 41.5563 96.0521 40.5976V38.1912L100.042 35.257L106.253 41.8347C106.599 42.2005 107.066 42.3847 107.535 42.3847C107.964 42.3847 108.394 42.2295 108.732 41.9165C109.44 41.2612 109.476 40.1626 108.815 39.4616L102.876 33.1748Z" fill="#007460"/>
<path d="M147.246 3.60818C146.278 3.60818 145.492 4.38538 145.492 5.34544V18.3665C145.492 19.3252 146.277 20.1038 147.246 20.1038C148.215 20.1038 148.999 19.3266 148.999 18.3665V5.34405C148.999 4.38538 148.215 3.60818 147.246 3.60818Z" fill="#007460"/>
<path d="M114.113 20.1024H120.712H122.353H137.379C140.163 20.1024 142.428 17.8595 142.428 15.1026V5.34405C142.428 4.38538 141.643 3.60818 140.675 3.60818C139.707 3.60818 138.92 4.38538 138.92 5.34405V15.1026C138.92 15.9449 138.229 16.6293 137.379 16.6293H128.232C128.746 15.6927 129.037 14.6205 129.037 13.4817C129.037 9.83125 126.037 6.86103 122.351 6.86103H116.34C115.372 6.86103 114.586 7.63822 114.586 8.59828C114.586 9.55695 115.37 10.3341 116.34 10.3341H122.351C124.104 10.3341 125.53 11.7458 125.53 13.4817C125.53 15.2176 124.104 16.6293 122.351 16.6293H120.71H114.113C113.145 16.6293 112.358 17.4064 112.358 18.3651C112.36 19.3252 113.145 20.1024 114.113 20.1024Z" fill="#007460"/>
<path d="M107.535 3.60486H84.3824C81.6027 3.60486 79.3406 5.845 79.3406 8.59772C79.3406 11.3504 81.6027 13.5906 84.3824 13.5906H98.0992H103.26H104.242C105.088 13.5906 105.777 14.2722 105.777 15.1103C105.777 15.9485 105.088 16.6301 104.242 16.6301H94.4787H93.8323H77.8101C76.9596 16.6301 76.2685 15.9457 76.2685 15.1034V5.34349C76.2685 4.38482 75.4837 3.60624 74.5156 3.60624C73.5475 3.60624 72.7627 4.38343 72.7627 5.34349V15.102C72.7627 17.8589 75.0276 20.1018 77.8115 20.1018H93.8323H94.4787H104.242C107.022 20.1018 109.284 17.8617 109.284 15.1089C109.284 12.3562 107.022 10.1161 104.242 10.1161H103.26H98.0992H84.3824C83.536 10.1161 82.8478 9.43448 82.8478 8.59634C82.8478 7.75819 83.536 7.07659 84.3824 7.07659H107.534C108.502 7.07659 109.287 6.2994 109.287 5.34072C109.288 4.38205 108.503 3.60486 107.535 3.60486Z" fill="#007460"/>
<path d="M67.9371 7.06422C66.969 7.06422 66.1828 7.84141 66.1828 8.80147V11.8271C66.1828 14.4746 64.0074 16.6288 61.334 16.6288C58.6606 16.6288 56.4853 14.4746 56.4853 11.8271V8.80147C56.4853 7.8428 55.7005 7.06422 54.7324 7.06422C53.7643 7.06422 52.9795 7.84141 52.9795 8.80147V11.8271C52.9795 16.3905 56.7287 20.1019 61.3354 20.1019C65.9422 20.1019 69.6914 16.3891 69.6914 11.8271V8.80147C69.69 7.84141 68.9052 7.06422 67.9371 7.06422Z" fill="#007460"/>
<path d="M60.8167 9.47149C60.9608 9.61419 61.1496 9.68484 61.3371 9.68484C61.5246 9.68484 61.7148 9.61419 61.8575 9.47149L63.7629 7.58462C63.9056 7.44332 63.9783 7.25491 63.9783 7.06927C63.9783 6.88224 63.907 6.69522 63.7629 6.55391L61.8589 4.66842C61.7148 4.52573 61.526 4.45508 61.3385 4.45508C61.1496 4.45508 60.9608 4.52573 60.8181 4.66842L58.9127 6.5553C58.7686 6.69799 58.6973 6.88501 58.6973 7.07065C58.6973 7.25768 58.7686 7.4447 58.9127 7.58739L60.8167 9.47149Z" fill="#007460"/>
</svg>
