<svg width="32" height="12" viewBox="0 0 32 12" fill="none" xmlns="http://www.w3.org/2000/svg">
<path d="M13.5305 0.828125C13.5305 1.13922 13.5305 1.45031 13.5305 1.7614C13.5305 2.8785 13.5305 3.9956 13.5305 5.11977C13.5305 5.14805 13.5305 5.16927 13.5305 5.20462C9.01307 5.20462 4.51018 5.20462 0 5.20462C0 3.74814 0 2.29167 0 0.828125C4.51018 0.828125 9.02036 0.828125 13.5305 0.828125Z" fill="#2699D6"/>
<path d="M0 6.78857C0.0291449 6.78857 0.0510152 6.78857 0.0801601 6.78857C4.53205 6.78857 8.98393 6.78857 13.4431 6.78857C13.4722 6.78857 13.4941 6.78857 13.5305 6.78857C13.5305 8.24505 13.5305 9.70152 13.5305 11.158C13.5014 11.158 13.4722 11.158 13.4431 11.158C8.99121 11.158 4.53932 11.158 0.0874312 11.158C0.0582863 11.158 0.0291449 11.158 0 11.158C0 9.70859 0 8.25212 0 6.78857Z" fill="#75B843"/>
<path d="M30.3473 0.828105C30.4347 0.842246 30.5221 0.856387 30.6096 0.877597C31.3309 1.03314 31.7681 1.47857 31.9284 2.16438C32.0449 2.64516 32.0231 3.12594 31.8045 3.58551C31.5641 4.09457 31.1487 4.39859 30.5877 4.49757C30.0777 4.58948 29.5749 4.53999 29.0867 4.36324C29.043 4.3491 28.9847 4.35617 28.941 4.37031C28.635 4.43394 28.329 4.44808 28.0157 4.44808C26.4856 4.44101 24.9482 4.44808 23.4181 4.44808C23.3962 4.44808 23.367 4.44808 23.3379 4.44808C23.3743 4.20062 23.418 3.95316 23.4545 3.7057C23.469 3.7057 23.4763 3.69863 23.4909 3.69863C24.0374 3.69863 24.5839 3.69863 25.1303 3.69863C25.2323 3.69863 25.3343 3.72691 25.4363 3.73398C25.4363 3.57137 25.4363 3.40168 25.4363 3.22492C25.4363 2.98453 25.4363 2.73708 25.4291 2.49669C25.4218 2.29872 25.3708 2.10075 25.2615 1.93107C25.123 1.71896 24.9263 1.6129 24.6713 1.6129C24.3653 1.6129 24.0665 1.6129 23.7605 1.6129C23.7386 1.6129 23.7168 1.6129 23.6876 1.6129C23.7241 1.36545 23.7605 1.11799 23.7969 0.870527C23.8115 0.870527 23.8261 0.863457 23.8406 0.863457C24.1758 0.863457 24.5037 0.856387 24.8389 0.863457C25.174 0.870527 25.4873 0.9483 25.7715 1.13213C26.1285 1.36545 26.3398 1.70482 26.4273 2.10075C26.471 2.29165 26.4928 2.48962 26.5001 2.68758C26.5147 2.99868 26.5001 3.30977 26.5001 3.62086C26.5001 3.64207 26.5001 3.66328 26.5001 3.69156C26.522 3.69156 26.5438 3.69156 26.5584 3.69156C27.1632 3.69156 27.7752 3.69156 28.38 3.69156C28.4237 3.69156 28.4528 3.68449 28.4601 3.64207C28.4747 3.57137 28.5038 3.50773 28.5038 3.43703C28.5038 2.9209 28.5038 2.41184 28.5038 1.89571C28.5038 1.68361 28.5621 1.49271 28.686 1.31595C28.8171 1.13213 29.0066 1.03314 29.2179 0.96244C29.4292 0.884667 29.6551 0.849316 29.8809 0.828105C29.8955 0.828105 29.9101 0.821035 29.9174 0.813965C30.0558 0.828105 30.2015 0.828105 30.3473 0.828105ZM29.5166 3.61379C29.7571 3.66328 29.9902 3.68449 30.2307 3.67742C30.5294 3.67035 30.7553 3.54309 30.8646 3.26735C31.0249 2.87141 31.0176 2.46841 30.8791 2.07247C30.8063 1.86036 30.6387 1.7331 30.4128 1.70482C30.2817 1.69068 30.1505 1.69775 30.0194 1.70482C29.8299 1.71189 29.6405 1.75431 29.4656 1.84622C29.5239 1.93814 29.5239 2.04419 29.5239 2.14317C29.5239 2.53911 29.5239 2.93504 29.5239 3.33805C29.5166 3.42289 29.5166 3.5148 29.5166 3.61379Z" fill="white"/>
<path d="M18.23 0.933984C18.1936 1.18144 18.1572 1.4289 18.1207 1.67636C18.0916 1.67636 18.0697 1.67636 18.0479 1.67636C17.7564 1.67636 17.4577 1.67636 17.1662 1.67636C16.6999 1.67636 16.4158 1.89554 16.3211 2.3339C16.2992 2.43288 16.2773 2.53893 16.2773 2.63792C16.2773 2.91366 16.2628 3.1894 16.2919 3.45807C16.3356 3.87521 16.6489 4.13681 17.0861 4.14388C17.7492 4.15095 18.4122 4.14388 19.0753 4.15095C19.782 4.15095 20.4888 4.15802 21.1955 4.15802C21.2757 4.15802 21.3558 4.15095 21.4287 4.12974C21.6837 4.06611 21.8222 3.84693 21.7857 3.57119C21.7566 3.33787 21.5526 3.16819 21.2902 3.16819C20.9332 3.16819 20.5835 3.16819 20.2265 3.16819C19.9787 3.16819 19.7383 3.12576 19.5197 3.01264C19.2137 2.85709 19.0534 2.60257 19.0024 2.27733C18.966 2.03694 18.9805 1.80363 19.0825 1.57738C19.221 1.26629 19.476 1.08953 19.7966 0.983475C20.0662 0.891562 20.3503 0.870352 20.6345 0.863281C21.3995 0.863281 22.1646 0.863281 22.9297 0.863281C22.9442 0.863281 22.9588 0.863281 22.9807 0.863281C22.9442 1.11074 22.9078 1.3582 22.8641 1.61273C22.8349 1.61273 22.8131 1.61273 22.7912 1.61273C22.0772 1.61273 21.3558 1.61273 20.6418 1.61273C20.5398 1.61273 20.4378 1.6198 20.343 1.64808C20.1099 1.70464 20.0225 1.84605 20.0297 2.10058C20.037 2.30561 20.1827 2.46116 20.3868 2.49651C20.4451 2.50358 20.4961 2.51065 20.5544 2.51065C20.9041 2.51065 21.2538 2.51065 21.6036 2.51065C21.8877 2.51772 22.1573 2.58135 22.3832 2.75104C22.6965 2.97729 22.8349 3.28838 22.8349 3.6631C22.8349 3.854 22.8131 4.03783 22.7329 4.22166C22.6018 4.53275 22.3468 4.70243 22.0335 4.79435C21.8003 4.86505 21.5598 4.89333 21.3194 4.89333C19.8403 4.89333 18.3539 4.89333 16.8748 4.89333C16.5615 4.89333 16.2628 4.83677 15.9859 4.69536C15.5851 4.49032 15.352 4.15802 15.2573 3.74088C15.2208 3.57826 15.199 3.40858 15.1917 3.24596C15.1844 2.9278 15.1698 2.60964 15.2281 2.29147C15.3156 1.84605 15.5123 1.47132 15.9057 1.20265C16.1462 1.04004 16.4158 0.941054 16.7072 0.933984C17.21 0.919843 17.7127 0.926914 18.2155 0.919843C18.2155 0.926914 18.2228 0.933984 18.23 0.933984Z" fill="white"/>
<path d="M18.288 11.059C17.9382 11.059 17.5885 11.059 17.2315 11.059C17.2315 11.0307 17.2315 11.0095 17.2315 10.9883C17.2315 10.2884 17.2315 9.59547 17.2315 8.89552C17.2315 8.82481 17.2242 8.74704 17.2096 8.67634C17.1659 8.51372 17.0493 8.42181 16.8744 8.4006C16.6559 8.37232 16.4518 8.42181 16.2478 8.49251C16.2478 9.34094 16.2478 10.1964 16.2478 11.0519C15.8908 11.0519 15.5338 11.0519 15.1768 11.0519C15.1768 11.0307 15.1768 11.0095 15.1768 10.9883C15.1768 10.0975 15.1768 9.20661 15.1768 8.31576C15.1768 8.25919 15.1767 8.20263 15.184 8.14607C15.2132 7.96224 15.3225 7.82791 15.4974 7.77134C15.7087 7.70064 15.9272 7.64408 16.1531 7.60166C16.43 7.5451 16.7069 7.53803 16.9837 7.55217C17.246 7.56631 17.5083 7.60873 17.7342 7.75013C17.7998 7.79256 17.8435 7.79256 17.9164 7.76427C18.4337 7.55924 18.9583 7.48853 19.5048 7.6158C19.9857 7.72892 20.2698 8.06123 20.3135 8.542C20.3208 8.63392 20.3281 8.72583 20.3281 8.81067C20.3281 9.53891 20.3281 10.2601 20.3281 10.9883C20.3281 11.0095 20.3281 11.0307 20.3281 11.059C19.9784 11.059 19.6286 11.059 19.2789 11.059C19.2789 11.0378 19.2789 11.0166 19.2789 10.9954C19.2789 10.2954 19.2789 9.59547 19.2789 8.90259C19.2789 8.83895 19.2789 8.77532 19.2643 8.71876C19.2206 8.51372 19.0676 8.4006 18.8199 8.4006C18.6159 8.4006 18.4191 8.44302 18.2297 8.53493C18.3098 8.67634 18.2953 8.83188 18.2953 8.98743C18.2953 9.6591 18.2953 10.3237 18.2953 10.9954C18.288 11.0095 18.288 11.0307 18.288 11.059Z" fill="white"/>
<path d="M27.0616 7.70028C27.0616 7.19122 27.0616 6.68923 27.0616 6.18017C27.4186 6.12361 27.7683 6.05998 28.1326 6.00342C28.1326 6.02463 28.1326 6.04584 28.1326 6.06705C28.1326 7.49524 28.1326 8.93051 28.1326 10.3587C28.1326 10.4223 28.1253 10.486 28.1181 10.5425C28.0889 10.7193 27.9723 10.8253 27.812 10.889C27.5716 10.988 27.3166 11.0374 27.0616 11.0657C26.792 11.094 26.5297 11.1081 26.2601 11.0799C25.5533 11.0162 24.985 10.6556 24.8101 9.87792C24.7008 9.36886 24.7227 8.86687 24.9267 8.37903C25.1307 7.91239 25.5096 7.66493 26.0196 7.58716C26.3694 7.53766 26.6972 7.58716 27.0251 7.68614C27.0397 7.69321 27.047 7.69321 27.0616 7.70028ZM27.0689 8.44266C26.9158 8.41438 26.7701 8.37195 26.6171 8.35781C26.2746 8.32246 25.9759 8.44973 25.8666 8.82445C25.8375 8.92344 25.8229 9.02949 25.8083 9.13554C25.7865 9.36886 25.7937 9.59511 25.8666 9.82136C25.9613 10.1254 26.1581 10.3092 26.4932 10.3375C26.6827 10.3516 26.8648 10.3163 27.047 10.2809C27.0543 10.2809 27.0689 10.2526 27.0689 10.2314C27.0689 10.1042 27.0689 9.96983 27.0689 9.84257C27.0689 9.383 27.0689 8.92344 27.0689 8.44266Z" fill="white"/>
<path d="M21.1522 8.61232C21.1158 8.35779 21.0794 8.11741 21.0357 7.86995C21.1158 7.84874 21.196 7.82045 21.2761 7.79924C21.5749 7.70733 21.8809 7.62249 22.1942 7.58007C22.6168 7.5235 23.0394 7.50936 23.4474 7.6437C23.8554 7.77803 24.0886 8.06084 24.1542 8.47799C24.1688 8.5699 24.176 8.66182 24.176 8.74666C24.176 9.53146 24.176 10.3163 24.176 11.1011C24.176 11.1152 24.176 11.1293 24.176 11.1576C24.0668 11.1364 23.9575 11.1152 23.8554 11.1011C23.615 11.0586 23.3745 11.0162 23.1341 10.9738C23.0831 10.9667 23.0175 10.9879 22.9665 10.995C22.6459 11.0586 22.3253 11.1011 21.9974 11.0728C21.8007 11.0586 21.604 11.0091 21.4218 10.9243C21.0284 10.7263 20.8827 10.3657 20.9118 9.96981C20.9337 9.69407 21.0284 9.45369 21.2543 9.27693C21.4218 9.14966 21.6186 9.07896 21.8226 9.03654C22.063 8.98705 22.3035 8.97291 22.5439 8.97291C22.7479 8.97291 22.9519 8.97291 23.1632 8.97291C23.1632 8.83857 23.1778 8.70424 23.1268 8.57697C23.0612 8.41436 22.9301 8.35072 22.7698 8.32244C22.5658 8.28709 22.3618 8.31537 22.1577 8.33658C21.8153 8.40022 21.4874 8.4992 21.1522 8.61232ZM23.1705 10.3021C23.1705 10.0688 23.1705 9.83548 23.1705 9.60216C23.1633 9.60216 23.156 9.59509 23.156 9.59509C22.9447 9.59509 22.7334 9.59509 22.5293 9.59509C22.4492 9.59509 22.369 9.60216 22.2962 9.6163C22.0849 9.65872 21.9537 9.81427 21.9464 10.0193C21.9464 10.2173 22.0557 10.3587 22.267 10.4082C22.3108 10.4152 22.3545 10.4223 22.4055 10.4223C22.6678 10.4435 22.9228 10.3657 23.1705 10.3021Z" fill="white"/>
<path d="M30.9595 8.99425C30.9595 8.88112 30.9741 8.78214 30.9595 8.68316C30.9304 8.49226 30.7847 8.37207 30.5734 8.34378C30.3402 8.3155 30.107 8.34378 29.8812 8.37207C29.5751 8.41449 29.291 8.5064 28.9995 8.59831C28.985 8.60538 28.9777 8.60538 28.9558 8.61245C28.9194 8.365 28.8829 8.11754 28.8465 7.87008C28.9922 7.82766 29.138 7.78523 29.2837 7.74281C29.7063 7.62262 30.1362 7.53777 30.5806 7.54484C30.8648 7.55192 31.149 7.58727 31.4113 7.71453C31.7319 7.87715 31.9067 8.13875 31.9577 8.47812C31.9723 8.57003 31.9796 8.66195 31.9796 8.75386C31.9796 9.53866 31.9796 10.3235 31.9796 11.1012C31.9796 11.1153 31.9796 11.1295 31.9796 11.1577C31.8703 11.1365 31.7683 11.1224 31.6663 11.1012C31.4258 11.0588 31.1781 11.0163 30.9377 10.9739C30.8867 10.9669 30.8211 10.9881 30.7701 10.9951C30.4495 11.0588 30.1289 11.1012 29.801 11.0729C29.6043 11.0588 29.4076 11.0093 29.2254 10.9174C28.8247 10.7123 28.6789 10.3447 28.7154 9.94166C28.7372 9.68006 28.8319 9.45382 29.0505 9.28413C29.2035 9.16393 29.3857 9.09323 29.5751 9.05081C29.8229 8.99425 30.0779 8.97304 30.3329 8.97304C30.5223 8.97304 30.7045 8.97304 30.894 8.97304C30.9158 8.99425 30.9377 8.99425 30.9595 8.99425ZM30.9814 10.3022C30.9814 10.0689 30.9814 9.83561 30.9814 9.60229C30.7337 9.60229 30.4859 9.59522 30.2455 9.60229C30.158 9.60229 30.0706 9.63057 29.9904 9.65885C29.8156 9.72956 29.7354 9.8851 29.75 10.076C29.7646 10.2457 29.8666 10.3659 30.0487 10.4083C30.0998 10.4224 30.158 10.4295 30.209 10.4295C30.4786 10.4437 30.7264 10.3659 30.9814 10.3022Z" fill="white"/>
</svg>
