<svg width="24" height="24" viewBox="0 0 24 24" fill="none" xmlns="http://www.w3.org/2000/svg">
<path d="M7 18C5.17107 18.4117 4 19.0443 4 19.7537C4 20.9943 7.58172 22 12 22C16.4183 22 20 20.9943 20 19.7537C20 19.0443 18.8289 18.4117 17 18" stroke="#00A9A2" stroke-width="1.5" stroke-linecap="round"/>
<path d="M13.2574 17.4936C12.9201 17.8184 12.4693 18 12.0002 18C11.531 18 11.0802 17.8184 10.7429 17.4936C7.6543 14.5008 3.51519 11.1575 5.53371 6.30373C6.6251 3.67932 9.24494 2 12.0002 2C14.7554 2 17.3752 3.67933 18.4666 6.30373C20.4826 11.1514 16.3536 14.5111 13.2574 17.4936Z" stroke="#00A9A2" stroke-width="1.5"/>
<path d="M15.999 8.97961C15.9995 8.69586 15.8904 8.41119 15.6731 8.19559L12.7879 5.32656C12.5697 5.11004 12.2844 5.00201 11.999 5.00201C11.7132 5.00201 11.4274 5.11004 11.2101 5.32656L8.3254 8.19466C8.10719 8.41165 7.99902 8.69586 7.99902 8.98008C7.99902 9.26383 8.10719 9.54804 8.3254 9.76456L11.2101 12.6341C11.4279 12.8501 11.7141 12.9586 11.999 12.9577C12.2844 12.9577 12.5697 12.8501 12.7879 12.6331L15.6726 9.76503C15.8899 9.54804 15.999 9.26336 15.999 8.97961Z" fill="#FF4300"/>
</svg>
