<svg width="27" height="16" viewBox="0 0 27 16" fill="none" xmlns="http://www.w3.org/2000/svg">
<path d="M15.8257 7.18337C15.7965 6.90763 15.7528 6.63189 15.6945 6.37029H10.8346C10.8929 6.09455 10.9731 5.81881 11.0678 5.55721H15.4687C15.3739 5.28147 15.2574 5.00573 15.1335 4.74413H11.4102C11.5487 4.46132 11.7017 4.19265 11.8693 3.93105H14.6818C14.4996 3.64824 14.2956 3.3725 14.077 3.11797H12.474C12.7218 2.82809 12.9841 2.55235 13.2755 2.30489C11.8693 1.0676 9.99671 0.311078 7.94928 0.311078C3.55568 0.296938 0 3.74723 0 8.00352C0 12.2527 3.55568 15.703 7.9347 15.703C9.98942 15.703 11.8547 14.9465 13.2609 13.7092C13.5451 13.4547 13.8438 13.186 14.0916 12.8891H12.4667C12.2482 12.6345 12.0441 12.3588 11.862 12.076H14.6745C14.842 11.8144 14.9951 11.5387 15.1335 11.2629H11.4102C11.2791 11.0013 11.1698 10.7256 11.0678 10.4498H15.4687C15.5561 10.1812 15.6362 9.91249 15.7018 9.63675C15.7601 9.36808 15.8038 9.09941 15.833 8.82367C15.8621 8.555 15.8767 8.28633 15.8767 8.01059C15.8694 7.72778 15.8548 7.45204 15.8257 7.18337Z" fill="#E30613"/>
<path d="M13.2612 13.7094C14.6674 14.9467 16.54 15.7032 18.5874 15.7032C22.9737 15.7032 26.5221 12.2529 26.5221 8.00371C26.5221 3.75449 22.9665 0.304199 18.5874 0.304199C16.54 0.304199 14.6674 1.06072 13.2612 2.29801C12.9698 2.55254 12.7074 2.82121 12.4597 3.11109H14.0627C14.2813 3.37269 14.4853 3.64136 14.6674 3.92417H11.855C11.6874 4.18577 11.5344 4.46151 11.3959 4.73725H15.1192C15.2431 4.99885 15.3596 5.27459 15.4544 5.55033H11.0535C10.9588 5.819 10.8859 6.08767 10.8203 6.36341H15.6802C15.7385 6.62501 15.7822 6.90075 15.8114 7.17649C15.8405 7.44516 15.8551 7.71383 15.8551 7.98957C15.8551 8.26531 15.8405 8.54105 15.8114 8.80265C15.7822 9.07839 15.7385 9.35413 15.6802 9.61573C15.6219 9.89147 15.5418 10.1672 15.4471 10.4288H11.0462C11.1409 10.7116 11.2575 10.9803 11.3886 11.2419H15.1119C14.9735 11.5247 14.8205 11.7934 14.6529 12.055H11.8404C12.0225 12.3378 12.2266 12.6135 12.4451 12.8681H14.07L13.2612 13.7094Z" fill="#F39200"/>
<path d="M12.9257 7.87638C12.9257 7.62185 12.7726 7.46631 12.5176 7.46631C12.3209 7.46631 12.1606 7.57236 12.0586 7.77033C12.1315 7.72791 12.2116 7.7067 12.299 7.7067C12.5249 7.7067 12.6706 7.82689 12.6998 8.03193H12.9184C12.9257 7.9683 12.9257 7.91881 12.9257 7.87638Z" fill="#070706"/>
<path d="M11.9057 8.67529C11.8984 8.72478 11.8984 8.746 11.8984 8.77428C11.8984 8.82377 11.9057 8.87326 11.913 8.92275H13.4213C13.4431 8.83791 13.4577 8.75307 13.4723 8.67529H11.9057Z" fill="#070706"/>
<path d="M17.5744 6.85107C17.2392 6.85107 16.9624 7.01369 16.7656 7.28943C16.9332 7.16217 17.1226 7.09853 17.3412 7.09853C17.5817 7.09853 17.8003 7.16217 18.1063 7.31064L18.1646 6.98541C17.946 6.88643 17.7638 6.85107 17.5744 6.85107Z" fill="#070706"/>
<path d="M2.71822 8.50578L3.46871 6.34229H3.30112L2.71094 8.05329L2.71822 8.50578Z" fill="#070706"/>
<path d="M4.9912 7.81982C5.18064 7.76326 5.45752 7.72791 5.70525 7.72791C6.06956 7.72791 6.22257 7.79154 6.25172 7.96122C6.31001 7.96829 6.37558 7.97536 6.44116 7.97536C6.4703 7.87638 6.47759 7.82689 6.47759 7.77033C6.47759 7.55822 6.33187 7.48045 5.93112 7.48045C5.68339 7.48045 5.40651 7.5158 5.21707 7.56529L5.10049 7.60064L5.02763 7.62185L5.10049 7.11279C5.0422 7.12693 4.97663 7.14107 4.91834 7.16228L4.80176 7.87638L4.88191 7.85517L4.9912 7.81982Z" fill="#070706"/>
<path d="M6.33859 8.57664C6.24387 8.56957 6.20744 8.5625 6.14915 8.5625C5.7484 8.5625 5.50796 8.67562 5.44238 8.88773C5.55168 8.83117 5.70469 8.80289 5.89413 8.80289C5.95242 8.80289 5.98885 8.80289 6.07628 8.81703C6.069 9.00793 6.03985 9.17054 5.98885 9.29781C6.18558 9.18468 6.32402 8.92308 6.33859 8.57664Z" fill="#070706"/>
<path d="M8.78002 7.50195C8.50315 7.50195 8.35742 7.5868 8.35742 7.76355C8.35742 7.77062 8.35742 7.77062 8.35742 7.77062C8.41571 7.75648 8.48129 7.74941 8.56144 7.74941C8.72902 7.74941 8.95489 7.77062 9.18077 7.7989L9.22448 7.53023C9.06419 7.50902 8.90389 7.50195 8.78002 7.50195Z" fill="#070706"/>
<path d="M8.13118 8.70354C7.67944 8.49851 7.47542 8.22277 7.47542 7.81976C7.47542 7.60765 7.51914 7.40969 7.61386 7.24707C7.43171 7.38848 7.32241 7.57937 7.27869 7.79855C7.27869 7.86218 7.26412 7.93289 7.25684 8.03187C7.25684 8.04601 7.25684 8.05308 7.25684 8.06722C7.25684 8.47023 7.45356 8.74597 7.9126 8.951C8.26234 9.10655 8.31334 9.15604 8.31334 9.29745C8.31334 9.30452 8.31334 9.30452 8.31334 9.31159C8.45906 9.26916 8.53193 9.18432 8.53193 9.05706C8.53193 8.90858 8.48092 8.86616 8.13118 8.70354Z" fill="#070706"/>
<path d="M10.6086 7.59375L10.5576 7.86949H10.8709L10.9146 7.59375H10.6086Z" fill="#070706"/>
<path d="M18.5215 7.81984C18.7109 7.77035 18.9878 7.735 19.2355 7.735C19.5998 7.735 19.7528 7.79863 19.782 7.96831C19.8403 7.97538 19.9059 7.97538 19.9714 7.98953C20.0006 7.88347 20.0079 7.84105 20.0079 7.78449C20.0079 7.57238 19.8549 7.49461 19.4541 7.49461C19.2064 7.49461 18.9295 7.52996 18.7401 7.58652L18.6235 7.62187L18.5433 7.64308L18.6308 7.12695C18.5725 7.14109 18.5069 7.1623 18.4486 7.17644L18.332 7.89054L18.4122 7.86933L18.5215 7.81984Z" fill="#070706"/>
<path d="M19.8698 8.57664C19.7824 8.56957 19.7387 8.5625 19.6804 8.5625C19.2797 8.5625 19.0465 8.67562 18.9736 8.88773C19.0829 8.83824 19.2359 8.80996 19.4254 8.80996C19.4837 8.80996 19.5201 8.80996 19.6075 8.8241C19.6002 9.015 19.5784 9.17761 19.5201 9.30488C19.7168 9.18468 19.8553 8.92308 19.8698 8.57664Z" fill="#070706"/>
<path d="M24.6563 7.2046L24.802 6.33496H24.598L24.4814 7.02078C24.547 7.07027 24.6053 7.1339 24.6563 7.2046Z" fill="#070706"/>
<path d="M24.4525 8.17345C24.4525 7.77045 24.2922 7.55127 23.9935 7.55127C23.7895 7.55127 23.6146 7.67146 23.498 7.88357C23.5782 7.82701 23.6729 7.79873 23.7749 7.79873C24.0664 7.79873 24.2267 8.01791 24.2267 8.42091C24.2267 8.71786 24.1611 8.96532 24.0591 9.15622C24.3068 8.9936 24.4525 8.63302 24.4525 8.17345Z" fill="#070706"/>
<path d="M12.5246 10.0467C11.5628 10.0467 11.0674 9.55881 11.0674 8.63261C11.0674 8.16597 11.184 7.74883 11.388 7.43066C11.0674 7.77004 10.8779 8.28617 10.8779 8.88007C10.8779 9.81334 11.4317 10.3012 12.3352 10.3012C12.6339 10.3012 12.9181 10.2588 13.2168 10.1739L13.2532 9.96889C13.0055 10.0184 12.7723 10.0467 12.5246 10.0467Z" fill="#070706"/>
<path d="M17.1083 10.0608C16.183 10.0608 15.6074 9.4174 15.6074 8.37807C15.6074 7.48722 15.9353 6.77312 16.4599 6.37012C16.234 6.49031 16.0518 6.62465 15.8624 6.82968L15.7604 6.8014L15.7021 6.91453C15.5855 7.14078 15.5054 7.39531 15.4398 7.72054C15.4107 7.71347 15.4034 7.72054 15.3815 7.72054C15.1775 7.72054 15.0536 7.80538 14.9443 8.13061C15.0318 8.04577 15.1338 8.02456 15.2504 8.02456C15.2722 8.02456 15.3524 8.02456 15.3961 8.02456C15.3669 8.21546 15.3524 8.41342 15.3524 8.61139C15.3597 9.64365 15.9571 10.3083 16.8825 10.3083C17.1229 10.3083 17.3269 10.28 17.6402 10.1951L17.6767 9.99716C17.4508 10.0396 17.2905 10.0608 17.1083 10.0608Z" fill="#070706"/>
<path d="M13.7127 9.99033L14.1936 7.07031H14.0187L13.4941 10.2378H14.3539C14.3685 10.1529 14.3831 10.0681 14.3903 9.99033H13.7127Z" fill="#070706"/>
<path d="M20.7801 9.99008L21.261 7.06299H21.0861L20.5615 10.2305H21.4213C21.4359 10.1456 21.4504 10.0608 21.465 9.98301L20.7801 9.99008Z" fill="#070706"/>
<path d="M24.2261 9.99027L24.2698 9.67918C24.0366 9.91957 23.7889 10.0327 23.4756 10.0327C22.849 10.0327 22.4409 9.5095 22.4409 8.71763C22.4409 8.11665 22.6522 7.56517 22.9728 7.20459C22.7834 7.32478 22.6304 7.50154 22.5065 7.72072C22.4774 7.71365 22.4701 7.72072 22.4482 7.71365C22.2223 7.71365 22.0912 7.81263 21.9746 8.23685C22.0912 8.07423 22.2223 8.02474 22.3681 8.01767C22.2661 8.29341 22.2151 8.61864 22.2151 8.95801C22.2151 9.74988 22.6449 10.2731 23.2716 10.2731C23.5849 10.2731 23.8326 10.167 24.0658 9.91957L24.022 10.2307H24.8381L24.8745 9.9832H24.2261" fill="#070706"/>
<path d="M0.779432 9.99005L1.40605 6.3418H1.20203L0.524414 10.2375H1.36233L1.40605 9.99005H0.779432Z" fill="#070706"/>
<path d="M3.35921 9.99047L3.85468 6.99268L3.5268 7.87646L3.14062 10.2379H4.0004L4.04412 9.99047H3.35921Z" fill="#070706"/>
<path d="M2.17096 9.99025L2.0981 7.01367L1.90137 8.14491L1.95237 10.2377H2.53527L2.6227 9.99025H2.17096Z" fill="#070706"/>
<path d="M6.25184 9.99036L6.26641 9.65806C6.04783 9.91966 5.75638 10.0399 5.36292 10.0399C4.8966 10.0399 4.58329 9.68634 4.58329 9.17728C4.58329 8.91568 4.64887 8.68943 4.77274 8.49854C4.57601 8.64701 4.45943 8.83791 4.40114 9.0783L4.36471 9.31161C4.36471 9.34697 4.35742 9.38939 4.35742 9.42474C4.35742 9.9338 4.6853 10.2873 5.15162 10.2873C5.54508 10.2873 5.83653 10.16 6.01868 9.90552L6.00411 10.2378H6.74731L6.75459 10.153L6.77645 9.99036H6.25184Z" fill="#070706"/>
<path d="M8.04395 10.0397C7.93466 10.0397 7.77436 10.0256 7.57035 10.0114C7.47563 10.0044 7.39548 9.9973 7.34448 9.98316L7.19147 9.94781L7.15503 9.94074L7.22061 9.50945C7.16232 9.49531 7.09674 9.4741 7.02388 9.45996L6.92188 10.1953L6.97288 10.2023L7.13318 10.2377C7.18418 10.2448 7.25704 10.2589 7.35905 10.266C7.56306 10.2801 7.71607 10.2943 7.83265 10.2943C8.45198 10.2943 8.83815 10.1387 9.0276 9.81347C8.80172 9.96195 8.48113 10.0397 8.04395 10.0397Z" fill="#070706"/>
<path d="M10.157 10.054C9.71985 10.054 9.47941 9.80658 9.47941 9.35408C9.47941 9.26924 9.48669 9.17025 9.50855 9.07127L9.55955 8.76018L9.60327 8.51272L9.93115 6.59668H9.75628L9.38468 8.76018L9.37011 8.86623C9.3774 8.90158 9.3774 8.94401 9.3774 8.98643C9.3774 9.19147 9.34097 9.36115 9.27539 9.50963C9.27539 9.54498 9.27539 9.57326 9.27539 9.60861C9.27539 10.0611 9.51584 10.3015 9.95301 10.3086C10.1497 10.3086 10.3319 10.2732 10.5723 10.2025L10.6015 10.0045C10.4412 10.0399 10.3027 10.054 10.157 10.054Z" fill="#070706"/>
<path d="M19.7817 9.99013L19.7962 9.66489C19.5777 9.92649 19.2862 10.0467 18.8927 10.0467C18.4264 10.0467 18.1058 9.69318 18.1058 9.18412C18.1058 8.92252 18.1714 8.6892 18.2953 8.50537C18.0913 8.65385 17.9528 8.85888 17.8945 9.11341C17.931 9.09927 17.9674 9.07806 18.0111 9.06392L17.9018 9.71439C18.0038 10.0679 18.3026 10.2941 18.6742 10.2941C19.0676 10.2941 19.3591 10.1669 19.5412 9.91235L19.5266 10.2447H20.2698L20.2771 10.1598L20.299 9.9972L19.7817 9.99013Z" fill="#070706"/>
<path d="M10.7764 9.94788C10.5433 10.0186 10.3611 10.0539 10.1571 10.0539C9.71994 10.0539 9.47949 9.80648 9.47949 9.35398C9.47949 9.26914 9.48678 9.17016 9.50864 9.07117L9.55964 8.76008L9.60336 8.51262L9.97496 6.34912H10.8274L10.7254 6.82283H11.1626L11.046 7.59349H10.6089L10.383 8.91563C10.3757 8.97219 10.3684 9.01461 10.3684 9.04289C10.3684 9.20551 10.4558 9.27621 10.6599 9.27621C10.7546 9.27621 10.8347 9.26914 10.893 9.24793L10.7764 9.94788Z" fill="white"/>
<path d="M7.47587 7.82687C7.47587 8.22987 7.67988 8.49854 8.13163 8.71065C8.48137 8.87327 8.53237 8.91569 8.53237 9.05709C8.53237 9.25506 8.37936 9.34697 8.03691 9.34697C7.78189 9.34697 7.54144 9.30455 7.27185 9.21971L7.15527 9.94795L7.1917 9.95502L7.34472 9.99037C7.39572 9.99744 7.46858 10.0116 7.57059 10.0186C7.7746 10.0399 7.9349 10.0469 8.04419 10.0469C8.94769 10.0469 9.37029 9.70756 9.363 8.98639C9.363 8.54803 9.18813 8.2935 8.75824 8.10261C8.40122 7.93999 8.3575 7.90464 8.3575 7.75616C8.3575 7.58648 8.50323 7.50164 8.7801 7.49457C8.94769 7.49457 9.17356 7.51578 9.39943 7.54406L9.5233 6.80875C9.29742 6.7734 8.96226 6.75219 8.76553 6.74512C7.80375 6.75219 7.47587 7.24004 7.47587 7.82687Z" fill="white"/>
<path d="M18.4855 6.21504L18.347 7.06347C18.041 6.91499 17.8224 6.85136 17.582 6.85136C16.9408 6.85136 16.4891 7.45233 16.4891 8.30783C16.4891 8.90174 16.7951 9.25525 17.2905 9.25525C17.5018 9.25525 17.735 9.19162 18.0192 9.05728L17.8662 9.94107C17.5456 10.0259 17.3415 10.0542 17.1084 10.0542C16.183 10.0542 15.6074 9.4108 15.6074 8.37147C15.6074 6.97863 16.4016 6.00293 17.5456 6.00293C17.6913 6.00293 17.8224 6.01707 17.9317 6.04535L18.2888 6.13019C18.3835 6.17969 18.4053 6.18676 18.4855 6.21504Z" fill="white"/>
<path d="M25.0431 9.99044H24.2343L24.2781 9.67935C24.0449 9.91974 23.7972 10.0329 23.4839 10.0329C22.8572 10.0329 22.4492 9.50966 22.4492 8.71779C22.4492 7.66432 23.0904 6.77347 23.8482 6.77347C24.1833 6.77347 24.4384 6.90781 24.6715 7.20476L24.861 6.09473H25.7062L25.0431 9.99044ZM23.7753 9.24806C24.1761 9.24806 24.4529 8.80971 24.4602 8.18045C24.4602 7.77745 24.2999 7.55827 24.0012 7.55827C23.615 7.55827 23.3381 7.99663 23.3309 8.61881C23.3309 9.03596 23.4839 9.24099 23.7753 9.24806Z" fill="white"/>
<path d="M13.3994 9.91966C13.108 10.0045 12.8165 10.0469 12.5178 10.0469C11.556 10.0469 11.0605 9.55908 11.0605 8.63288C11.0605 7.54406 11.6944 6.74512 12.5615 6.74512C13.2683 6.74512 13.72 7.19054 13.72 7.89757C13.72 8.13089 13.6909 8.35714 13.618 8.68237H11.913C11.9057 8.73186 11.9057 8.75307 11.9057 8.78135C11.9057 9.14901 12.1608 9.33283 12.6562 9.33283C12.9623 9.33283 13.2391 9.2692 13.5452 9.13487L13.3994 9.91966ZM12.9185 8.03897C12.9258 7.97534 12.9258 7.91878 12.9258 7.87636C12.9258 7.62183 12.7728 7.46628 12.5178 7.46628C12.2482 7.46628 12.0515 7.67132 11.9713 8.0319L12.9185 8.03897Z" fill="white"/>
<path d="M15.7238 6.79467C15.702 6.7876 15.6728 6.7876 15.6364 6.7876C15.3522 6.7876 15.1919 6.929 14.9296 7.30373L15.0025 6.82295H14.2229L13.6982 9.99043H14.558C14.864 8.05317 14.9442 7.72087 15.3595 7.72087C15.3886 7.72087 15.3886 7.72087 15.4178 7.72087C15.4979 7.33908 15.5999 7.05627 15.7457 6.80174L15.7238 6.79467Z" fill="white"/>
<path d="M22.799 6.79467C22.7699 6.7876 22.7407 6.7876 22.7116 6.7876C22.4274 6.7876 22.2671 6.929 22.0048 7.30373L22.0777 6.82295H21.298L20.7734 9.99043H21.6332C21.9392 8.05317 22.0194 7.72087 22.4347 7.72087C22.4638 7.72087 22.4566 7.72087 22.493 7.72794C22.5659 7.34615 22.6751 7.06334 22.8209 6.80881L22.799 6.79467Z" fill="white"/>
<path d="M4.2184 9.99044H3.35862L3.85408 6.99265L2.75386 9.99044H2.17097L2.0981 7.01386L1.58078 9.99044H0.779297L1.44963 6.09473H2.681L2.71743 8.50569L3.54806 6.09473H4.88144L4.2184 9.99044Z" fill="white"/>
<path d="M6.33944 8.57655C6.24472 8.56948 6.20829 8.56241 6.15 8.56241C5.66182 8.56241 5.41409 8.72502 5.41409 9.04319C5.41409 9.24115 5.53795 9.36842 5.72011 9.36842C6.06985 9.36842 6.31758 9.05026 6.33944 8.57655ZM6.95877 9.9906H6.24472L6.25929 9.6583C6.0407 9.9199 5.74925 10.0401 5.3558 10.0401C4.88948 10.0401 4.57617 9.68658 4.57617 9.17752C4.57617 8.40686 5.12993 7.96144 6.08442 7.95437C6.18643 7.95437 6.31029 7.96144 6.43416 7.97558C6.4633 7.87659 6.47059 7.8271 6.47059 7.77054C6.47059 7.55843 6.32487 7.48066 5.92412 7.48066C5.67639 7.48066 5.39952 7.51601 5.21007 7.5655L5.09349 7.60085L5.02063 7.62206L5.13721 6.90797C5.5671 6.78777 5.85126 6.73828 6.16457 6.73828C6.90048 6.75242 7.28665 7.07058 7.28665 7.67863C7.28665 7.83417 7.27208 7.95437 7.21379 8.30788L7.03163 9.43205L7.00249 9.63709L6.98063 9.7997L6.96605 9.91283L6.95877 9.9906Z" fill="white"/>
<path d="M19.2505 9.36844C19.061 9.36844 18.9444 9.24117 18.9444 9.04321C18.9444 8.72504 19.1922 8.56243 19.6731 8.56243C19.7386 8.56243 19.7751 8.5695 19.8625 8.57657C19.8552 9.05028 19.6002 9.36844 19.2505 9.36844ZM20.5037 9.90578L20.5183 9.79265L20.5401 9.63004L20.5693 9.43207L20.7514 8.3079C20.8097 7.95439 20.8243 7.83419 20.8243 7.67865C20.8243 7.0706 20.4308 6.75244 19.6949 6.75244C19.3816 6.75244 19.0974 6.79486 18.6676 6.92213L18.551 7.63622L18.6311 7.61501L18.7477 7.57966C18.9372 7.5231 19.214 7.48775 19.4618 7.48775C19.8625 7.48775 20.0155 7.56552 20.0155 7.77763C20.0155 7.83419 20.0082 7.87661 19.9791 7.98267C19.8479 7.96853 19.7241 7.96146 19.6293 7.96146C18.6748 7.96146 18.1211 8.41395 18.1211 9.18461C18.1211 9.69367 18.4417 10.0472 18.908 10.0472C19.3015 10.0472 19.5929 9.92699 19.8115 9.66539L19.7969 9.99062H20.511L20.5037 9.90578Z" fill="white"/>
</svg>
