<svg width="28" height="12" viewBox="0 0 28 12" fill="none" xmlns="http://www.w3.org/2000/svg">
<path d="M6.31767 0.665527C6.33224 0.877635 6.31766 1.08974 6.25209 1.29478C6.06993 1.88161 5.70562 2.31997 5.10815 2.55329C4.926 2.62399 4.73655 2.65227 4.53254 2.63813C4.53254 2.54622 4.52525 2.44723 4.53254 2.35532C4.59083 1.86747 4.8167 1.46447 5.1883 1.13923C5.47975 0.884705 5.8222 0.72916 6.20837 0.672598C6.21566 0.672598 6.23023 0.665527 6.23752 0.665527C6.25938 0.665527 6.28852 0.665527 6.31767 0.665527Z" fill="white"/>
<path d="M7.92816 3.59274C6.53649 4.45531 6.71865 6.34307 8.15404 6.96526C8.12489 7.04303 8.10303 7.1208 8.0666 7.19857C7.83344 7.79248 7.48371 8.32275 7.05382 8.79645C6.87895 8.98735 6.67494 9.13583 6.41992 9.19946C6.15033 9.27016 5.88802 9.22067 5.63301 9.12168C5.46542 9.05805 5.30512 8.98735 5.13025 8.93786C4.75137 8.83887 4.38706 8.88837 4.03004 9.02977C3.86245 9.0934 3.69486 9.16411 3.51999 9.20653C3.19211 9.29137 2.89339 9.20653 2.63108 9.00149C2.39792 8.82473 2.21576 8.59849 2.04089 8.36517C1.57457 7.75712 1.26126 7.08545 1.08639 6.35014C0.984388 5.933 0.940672 5.50878 0.96253 5.0775C0.998961 4.51895 1.15926 3.99575 1.53086 3.55032C1.88059 3.1261 2.33234 2.87157 2.88609 2.77966C3.23583 2.7231 3.571 2.7938 3.89888 2.914C4.05918 2.97056 4.21219 3.02712 4.37249 3.08368C4.5255 3.14024 4.68579 3.14024 4.84609 3.08368C5.05011 3.01298 5.25412 2.93521 5.46543 2.8645C5.73502 2.77259 6.0046 2.70896 6.28876 2.73017C6.94452 2.77259 7.50556 3.00591 7.90631 3.53618C7.91359 3.55032 7.92088 3.55739 7.92816 3.57153C7.92816 3.58567 7.92816 3.58567 7.92816 3.59274Z" fill="white"/>
<path d="M11.7756 6.47715C11.7756 7.38214 11.7756 8.28007 11.7756 9.17799C11.353 9.17799 10.9304 9.17799 10.5078 9.17799C10.5078 6.54078 10.5078 3.91064 10.5078 1.27344C10.5297 1.27344 10.5442 1.27344 10.5661 1.27344C11.5716 1.27344 12.5844 1.27344 13.5899 1.27344C14.1291 1.27344 14.6464 1.39363 15.1054 1.68351C15.6446 2.02289 15.9871 2.49659 16.1546 3.09756C16.3222 3.73389 16.3004 4.37021 16.0308 4.97825C15.7029 5.72063 15.1127 6.1802 14.3112 6.38524C14.0562 6.44887 13.8012 6.47715 13.5389 6.47715C12.9778 6.47715 12.4095 6.47715 11.8485 6.47715C11.8266 6.47715 11.8048 6.47715 11.7756 6.47715ZM11.7829 5.44489C11.8048 5.44489 11.8193 5.44489 11.8266 5.44489C12.3002 5.44489 12.7738 5.44489 13.2474 5.44489C13.4587 5.44489 13.6628 5.42368 13.8668 5.36712C14.3622 5.23278 14.7192 4.9429 14.8723 4.46213C14.9961 4.08033 14.9961 3.69854 14.8795 3.30967C14.7703 2.94909 14.5444 2.67335 14.1946 2.49659C13.9469 2.3764 13.6773 2.31277 13.4077 2.3057C12.8831 2.29863 12.3512 2.29863 11.8266 2.29863C11.812 2.29863 11.7975 2.29863 11.7829 2.3057C11.7829 3.35916 11.7829 4.39849 11.7829 5.44489Z" fill="white"/>
<path d="M20.4163 5.75601C20.409 5.52269 20.4382 5.29644 20.3872 5.07019C20.3216 4.7591 20.1395 4.54699 19.8334 4.43387C19.4473 4.29246 19.0465 4.28539 18.6604 4.41973C18.3252 4.53992 18.0993 4.7591 18.0119 5.10554C18.0119 5.11969 17.99 5.13383 17.9755 5.13383C17.6039 5.13383 17.2395 5.13383 16.8534 5.13383C16.8752 5.0207 16.8825 4.91465 16.9044 4.80859C17.021 4.33489 17.3197 3.99551 17.735 3.74098C18.0702 3.53595 18.4418 3.42282 18.8425 3.3804C19.3016 3.33091 19.7533 3.35919 20.1977 3.48645C20.5693 3.59251 20.9045 3.76927 21.1741 4.05208C21.4291 4.32075 21.5748 4.63891 21.6113 4.99949C21.6258 5.10554 21.6259 5.21867 21.6259 5.32472C21.6259 6.58323 21.6259 7.84174 21.6259 9.10024C21.6259 9.12145 21.6259 9.14973 21.6259 9.17095C21.2324 9.17095 20.8462 9.17095 20.4528 9.17095C20.4528 8.85985 20.4528 8.54169 20.4528 8.2306C20.4455 8.2306 20.4455 8.2306 20.4382 8.22353C20.4309 8.2306 20.4236 8.23767 20.4163 8.25181C20.1249 8.73966 19.6877 9.02954 19.134 9.16387C18.5875 9.29821 18.041 9.25579 17.5237 9.02247C16.9845 8.77501 16.6566 8.35787 16.5765 7.78517C16.5182 7.38217 16.5765 7.00037 16.8242 6.661C17.0137 6.40647 17.2687 6.23679 17.5601 6.10952C17.8662 5.98226 18.1867 5.91155 18.5146 5.8762C18.8279 5.84792 19.1413 5.83378 19.4546 5.81257C19.7533 5.79136 20.052 5.77722 20.3508 5.76308C20.3726 5.76308 20.3945 5.76308 20.4163 5.75601ZM20.4163 6.5903C20.3945 6.5903 20.3799 6.5903 20.3726 6.5903C20.1249 6.60444 19.8772 6.61858 19.6294 6.63979C19.338 6.661 19.0465 6.67514 18.7551 6.70342C18.5438 6.72463 18.3398 6.7812 18.1576 6.89432C17.8662 7.07108 17.735 7.39631 17.837 7.71447C17.9172 7.969 18.0993 8.13162 18.3543 8.20939C18.8789 8.372 19.3817 8.32958 19.848 8.0397C20.1249 7.87002 20.307 7.62256 20.3799 7.31147C20.4382 7.07815 20.4018 6.83776 20.4163 6.5903Z" fill="white"/>
<path d="M22.1221 3.44434C22.5665 3.44434 23.0037 3.44434 23.4482 3.44434C23.9436 4.99979 24.4391 6.55525 24.9418 8.11778C24.9491 8.11778 24.9564 8.11778 24.9564 8.11778C24.9637 8.10364 24.971 8.0895 24.9783 8.07536C25.1094 7.65821 25.2479 7.24107 25.379 6.81685C25.736 5.70682 26.0858 4.59679 26.4428 3.49383C26.4501 3.46555 26.4574 3.44434 26.4938 3.44434C26.9018 3.44434 27.3099 3.44434 27.7106 3.44434C27.7179 3.44434 27.7252 3.44434 27.7397 3.44434C27.7252 3.49383 27.7033 3.53625 27.6887 3.58574C26.9528 5.57955 26.2242 7.57337 25.4883 9.56011C25.3644 9.89241 25.2187 10.2176 25.0147 10.5075C24.7087 10.9459 24.2934 11.2075 23.7542 11.2853C23.419 11.3347 23.0911 11.3347 22.756 11.3065C22.7268 11.3065 22.705 11.2994 22.705 11.264C22.705 10.9671 22.705 10.6701 22.705 10.3732C22.705 10.3661 22.705 10.3591 22.705 10.3661C22.8215 10.3661 22.9381 10.3661 23.0547 10.3661C23.1931 10.3661 23.3389 10.3591 23.47 10.3166C23.6959 10.2459 23.8635 10.1045 23.98 9.90655C24.0821 9.73687 24.1331 9.5389 24.2059 9.35507C24.2496 9.24195 24.2424 9.14297 24.1986 9.02984C23.5064 7.1845 22.8215 5.33917 22.1366 3.49383C22.1366 3.48676 22.1294 3.46555 22.1221 3.44434Z" fill="white"/>
</svg>
