<svg width="24" height="24" viewBox="0 0 24 24" fill="none" xmlns="http://www.w3.org/2000/svg">
<rect width="24" height="24" rx="12" fill="#FFFC00"/>
<path d="M18.2589 15.8331C15.9156 14.6988 15.5422 12.9475 15.5255 12.8176C15.5054 12.6602 15.4826 12.5365 15.6562 12.3764C15.8236 12.2218 16.5663 11.7621 16.7724 11.6183C17.113 11.3801 17.263 11.1424 17.1524 10.8501C17.0751 10.6479 16.8868 10.5717 16.6885 10.5717C16.6259 10.5719 16.5636 10.5789 16.5025 10.5926C16.1283 10.6738 15.7649 10.8613 15.5545 10.9119C15.5293 10.9185 15.5033 10.922 15.4772 10.9224C15.3651 10.9224 15.3226 10.8725 15.3334 10.7376C15.3597 10.3285 15.4154 9.53019 15.3508 8.78442C15.2623 7.75835 14.9313 7.24995 14.5389 6.80032C14.3491 6.58227 13.4676 5.64551 11.7665 5.64551C10.0654 5.64551 9.1851 6.58227 8.99643 6.79761C8.60286 7.24724 8.27231 7.75564 8.18455 8.78171C8.11998 9.52748 8.17798 10.3255 8.20195 10.7349C8.20968 10.8632 8.17024 10.9197 8.05813 10.9197C8.03203 10.9192 8.00608 10.9157 7.9808 10.9092C7.77087 10.8586 7.40746 10.6711 7.03322 10.5899C6.97217 10.5762 6.90982 10.5692 6.84725 10.569C6.64815 10.569 6.46064 10.6463 6.38332 10.8474C6.27275 11.1397 6.42198 11.3774 6.76375 11.6156C6.96981 11.7594 7.71249 12.2187 7.8799 12.3737C8.0531 12.5338 8.03068 12.6575 8.01057 12.8149C7.99395 12.9467 7.62009 14.698 5.27722 15.8304C5.13997 15.8969 4.90646 16.0377 5.3182 16.265C5.96462 16.6222 6.39492 16.5839 6.72934 16.7993C7.01311 16.9821 6.84532 17.3765 7.05177 17.5188C7.30539 17.6939 8.05503 17.5064 9.0235 17.8261C9.83538 18.0937 10.3287 18.8495 11.7684 18.8495C13.2082 18.8495 13.7158 18.0902 14.5134 17.8261C15.4799 17.5064 16.2311 17.6939 16.4851 17.5188C16.6912 17.3765 16.5238 16.9821 16.8076 16.7993C17.142 16.5839 17.5719 16.6222 18.2187 16.265C18.6297 16.0404 18.3961 15.8996 18.2589 15.8331Z" fill="white"/>
<path d="M19.2779 15.7C19.1727 15.4139 18.9725 15.2608 18.7444 15.134C18.7014 15.1088 18.662 15.0887 18.6284 15.0733C18.5603 15.0381 18.4907 15.004 18.4215 14.9681C17.7106 14.5911 17.1554 14.1156 16.7703 13.5519C16.661 13.3932 16.5661 13.225 16.4869 13.0493C16.4541 12.9554 16.4556 12.902 16.4792 12.8533C16.5026 12.8158 16.5335 12.7835 16.5701 12.7586C16.6922 12.6778 16.8183 12.5958 16.9037 12.5406C17.056 12.442 17.1767 12.3639 17.2544 12.3086C17.5463 12.1045 17.7504 11.8876 17.878 11.6452C17.967 11.4777 18.0189 11.293 18.0302 11.1037C18.0414 10.9143 18.0118 10.7248 17.9433 10.548C17.75 10.0392 17.2694 9.72331 16.6872 9.72331C16.5644 9.7232 16.4419 9.73616 16.3219 9.76197C16.2898 9.76893 16.2577 9.77628 16.2264 9.7844C16.2318 9.43645 16.224 9.06916 16.1931 8.70768C16.0833 7.43689 15.6383 6.77075 15.1744 6.23955C14.8773 5.90667 14.5274 5.62505 14.1387 5.40601C13.4346 5.00394 12.6363 4.7998 11.766 4.7998C10.8958 4.7998 10.1013 5.00394 9.39647 5.40601C9.00681 5.62512 8.65617 5.9073 8.3588 6.2411C7.89487 6.7723 7.44988 7.43959 7.34008 8.70923C7.30915 9.07071 7.30142 9.43993 7.30644 9.78594C7.27513 9.77782 7.24343 9.77048 7.21134 9.76352C7.09127 9.7377 6.9688 9.72474 6.84599 9.72486C6.26336 9.72486 5.78203 10.0407 5.5895 10.5495C5.52068 10.7264 5.49076 10.9161 5.50176 11.1056C5.51277 11.2952 5.56445 11.4801 5.65329 11.6479C5.78126 11.8903 5.98539 12.1072 6.27728 12.3113C6.3546 12.3654 6.47561 12.4435 6.62794 12.5433C6.71029 12.5966 6.83052 12.6747 6.94844 12.7528C6.9897 12.7795 7.02476 12.8147 7.05128 12.856C7.07602 12.9067 7.0768 12.9612 7.04007 13.0617C6.96195 13.2337 6.86866 13.3984 6.76132 13.5539C6.38476 14.1048 5.84582 14.5718 5.15765 14.9457C4.79308 15.139 4.4142 15.2681 4.25414 15.703C4.13352 16.0313 4.21239 16.4047 4.51897 16.7194C4.63149 16.8369 4.76199 16.9357 4.90558 17.0121C5.20435 17.1763 5.52205 17.3034 5.85162 17.3906C5.91963 17.4081 5.9842 17.437 6.04261 17.476C6.15434 17.5739 6.13849 17.7212 6.28733 17.9369C6.36205 18.0484 6.45699 18.1449 6.56724 18.2214C6.87962 18.4372 7.23067 18.4507 7.60259 18.465C7.93855 18.4778 8.31937 18.4925 8.75431 18.6359C8.93447 18.6954 9.12159 18.8106 9.33848 18.9452C9.85924 19.2653 10.5722 19.7033 11.7652 19.7033C12.9583 19.7033 13.6763 19.263 14.2009 18.9417C14.4162 18.8095 14.6022 18.6954 14.7773 18.6374C15.2123 18.4936 15.5931 18.4793 15.9291 18.4665C16.301 18.4522 16.652 18.4387 16.9644 18.223C17.095 18.1319 17.2038 18.0131 17.283 17.875C17.3901 17.6929 17.3874 17.5657 17.4879 17.4768C17.5427 17.4397 17.6033 17.412 17.6673 17.3949C18.0013 17.3074 18.3234 17.1791 18.6261 17.0129C18.7786 16.931 18.9159 16.8235 19.032 16.6951L19.0359 16.6905C19.3235 16.3827 19.3958 16.0201 19.2779 15.7ZM18.2174 16.2698C17.5706 16.627 17.1407 16.5888 16.8063 16.8041C16.5221 16.987 16.6903 17.3813 16.4838 17.5236C16.2302 17.6987 15.4806 17.5112 14.5121 17.831C13.7134 18.095 13.2038 18.8543 11.7672 18.8543C10.3305 18.8543 9.83295 18.0966 9.02107 17.829C8.05454 17.5093 7.30335 17.6968 7.04935 17.5217C6.84328 17.3794 7.01069 16.985 6.72691 16.8022C6.39211 16.5868 5.96219 16.6251 5.31578 16.2698C4.90404 16.0425 5.13755 15.9018 5.2748 15.8353C7.61767 14.7009 7.99152 12.9496 8.00814 12.8197C8.02825 12.6623 8.05067 12.5386 7.87747 12.3786C7.71007 12.2239 6.96738 11.7642 6.76132 11.6204C6.42033 11.3823 6.27032 11.1445 6.38089 10.8522C6.45822 10.65 6.64688 10.5739 6.84483 10.5739C6.90739 10.5741 6.96974 10.5811 7.03079 10.5947C7.40503 10.6759 7.76844 10.8634 7.97838 10.9141C8.00365 10.9206 8.0296 10.9241 8.0557 10.9245C8.16781 10.9245 8.20725 10.8681 8.19952 10.7397C8.17555 10.3303 8.11756 9.53233 8.18212 8.78655C8.27065 7.76048 8.60121 7.25209 8.99401 6.80246C9.18267 6.58634 10.0692 5.64958 11.7645 5.64958C13.4598 5.64958 14.3486 6.58247 14.5372 6.79782C14.9304 7.24745 15.2614 7.75584 15.3491 8.78191C15.4137 9.52769 15.358 10.326 15.3317 10.7351C15.3228 10.87 15.3634 10.9199 15.4756 10.9199C15.5017 10.9195 15.5276 10.916 15.5529 10.9094C15.7632 10.8588 16.1266 10.6713 16.5009 10.5901C16.5619 10.5764 16.6243 10.5694 16.6868 10.5692C16.8859 10.5692 17.0734 10.6465 17.1507 10.8476C17.2613 11.1399 17.1121 11.3776 16.7707 11.6158C16.5646 11.7596 15.822 12.2189 15.6546 12.3739C15.481 12.534 15.5038 12.6577 15.5239 12.8151C15.5405 12.9469 15.914 14.6982 18.2572 15.8306C18.3956 15.8998 18.6292 16.0406 18.2174 16.2698Z" fill="#070706"/>
</svg>
