<svg width="24" height="24" viewBox="0 0 24 24" fill="none" xmlns="http://www.w3.org/2000/svg">
<path d="M21.103 20.4096V12.6046C20.6372 12.7787 20.146 12.875 19.649 12.8897C19.5979 12.8897 19.5494 12.8919 19.5017 12.8919C18.6321 12.8942 17.779 12.6542 17.0382 12.1987C16.2976 12.6541 15.4447 12.8941 14.5752 12.8919C13.7093 12.893 12.8607 12.6498 12.1269 12.19C11.3829 12.6515 10.5242 12.8947 9.64872 12.8919C8.77687 12.893 7.92266 12.6463 7.18568 12.1805C6.44871 12.6463 5.5945 12.893 4.72265 12.8919C4.67543 12.8919 4.62777 12.8919 4.57665 12.8897H4.57405C4.06255 12.8745 3.55732 12.7729 3.07976 12.589V20.4096H1.69336V21.7961H22.4894V20.4096H21.103ZM10.705 17.6368H6.54577V14.3441C6.54577 14.2982 6.56403 14.2541 6.59653 14.2216C6.62903 14.1891 6.67311 14.1708 6.71907 14.1708H10.5317C10.5776 14.1708 10.6217 14.1891 10.6542 14.2216C10.6867 14.2541 10.705 14.2982 10.705 14.3441V17.6368ZM17.637 20.4096H14.171V14.3441C14.171 14.2982 14.1892 14.2541 14.2217 14.2216C14.2542 14.1891 14.2983 14.1708 14.3443 14.1708H17.4637C17.5097 14.1708 17.5537 14.1891 17.5862 14.2216C17.6187 14.2541 17.637 14.2982 17.637 14.3441V20.4096Z" fill="#FF4300"/>
<path d="M22.3408 8.3774L20.3184 3.77281C19.7166 2.38641 19.7166 2.38641 18.3302 2.38641H5.85257C4.46617 2.38641 4.46617 2.38641 3.86221 3.77281L1.8398 8.3774C1.44987 9.21834 1.96501 10.0818 1.96544 10.0822L1.9832 10.1108C2.0014 10.1394 2.03216 10.1867 2.05339 10.2135C2.05772 10.2192 2.06162 10.2252 2.06552 10.2308L2.29255 10.5077L2.5226 10.7304L2.5408 10.746C2.66871 10.8551 2.80551 10.9534 2.94979 11.0397V11.0419C3.4213 11.3275 3.95849 11.4867 4.50949 11.5042C4.54502 11.5042 4.58054 11.5042 4.6165 11.5042C5.4502 11.5057 6.25351 11.1913 6.86464 10.6242C6.95289 10.5425 7.03636 10.4557 7.11463 10.3643C7.19317 10.4556 7.27677 10.5423 7.36505 10.6242C7.97618 11.1913 8.7795 11.5057 9.61319 11.5042C10.6218 11.5042 11.5225 11.0709 12.11 10.3968C12.1109 10.396 12.1121 10.3955 12.1133 10.3955C12.1145 10.3955 12.1156 10.396 12.1165 10.3968L12.3617 10.6247C12.973 11.1918 13.7765 11.5062 14.6103 11.5046C15.6193 11.5046 16.5214 11.0714 17.1084 10.3951C17.6959 11.0714 18.5975 11.5046 19.607 11.5046H19.7149C20.252 11.4846 20.7747 11.3248 21.2312 11.041C21.2724 11.0163 21.3118 10.9903 21.3517 10.9643C21.6597 10.7566 21.9276 10.4951 22.1428 10.1923L22.2295 10.0623C22.2685 9.97393 22.7151 9.18281 22.3408 8.3774Z" fill="#FF4300"/>
</svg>
