<svg width="14" height="19" viewBox="0 0 14 19" fill="none" xmlns="http://www.w3.org/2000/svg">
<path d="M7.00044 18.1667C5.74807 18.1666 4.52461 17.7902 3.4887 17.0864C2.45279 16.3826 1.6522 15.3839 1.19073 14.2196C0.72927 13.0554 0.628218 11.7793 0.90068 10.5569C1.17314 9.33456 1.80655 8.22223 2.71878 7.36417C3.83711 6.31167 6.58378 4.41667 6.16711 0.25C11.1671 3.58333 13.6671 6.91667 8.66711 11.9167C9.50045 11.9167 10.7504 11.9167 12.8338 9.85833C13.0588 10.5025 13.2504 11.195 13.2504 11.9167C13.2504 13.5743 12.592 15.164 11.4199 16.3361C10.2478 17.5082 8.65805 18.1667 7.00044 18.1667Z" fill="white"/>
</svg>
