<svg width="24" height="24" viewBox="0 0 24 24" fill="none" xmlns="http://www.w3.org/2000/svg">
<rect width="24" height="24" rx="12" fill="#070706"/>
<g clip-path="url(#clip0_1_2181)">
<path d="M13.1419 11.1137C14.6308 9.4244 17.6438 6 17.6438 6H16.6322L12.6785 10.464L9.51488 6H6L10.7577 12.6736L6.0187 17.9917H7.07946L11.2143 13.3128L14.491 18C14.491 18 17.9124 17.9969 17.998 17.9917C16.3734 15.6924 14.7606 13.4088 13.14 11.1137H13.1419ZM14.0915 16.0501C13.8062 15.6434 13.5178 15.2388 13.2305 14.8332C12.832 14.2711 12.4315 13.7101 12.032 13.1491C11.6364 12.5933 11.2399 12.0386 10.8453 11.4818C10.4645 10.9437 10.0886 10.4015 9.70775 9.8634C9.45486 9.50573 9.1941 9.15328 8.94121 8.79562C8.63223 8.35975 8.32817 7.91971 8.02017 7.48279C7.86568 7.26382 7.70824 7.04797 7.52817 6.79666C8.03592 6.79666 9.17442 6.79353 9.17442 6.79353C9.17442 6.79353 10.124 8.1439 10.5294 8.71846C11.168 9.62357 11.8037 10.5308 12.4443 11.4348C13.0908 12.3462 13.7442 13.2523 14.3897 14.1648C14.9633 14.975 15.5311 15.7914 16.1028 16.6038C16.2347 16.7904 16.3705 16.9729 16.521 17.1794C16.4236 17.1908 14.924 17.244 14.924 17.244C14.924 17.244 14.3444 16.4108 14.0915 16.0511V16.0501Z" fill="#FEFFFF"/>
</g>
<defs>
<clipPath id="clip0_1_2181">
<rect width="12" height="12" fill="white" transform="translate(6 6)"/>
</clipPath>
</defs>
</svg>
