<svg width="34" height="10" viewBox="0 0 34 10" fill="none" xmlns="http://www.w3.org/2000/svg">
<path d="M0.558892 0.0825195H4.77033C5.33866 0.10373 5.79769 0.280487 5.95799 0.874389L6.87605 5.1519C5.97256 2.91769 3.80126 1.05115 0.522461 0.280487L0.558892 0.0825195Z" fill="white"/>
<path d="M5.65235 9.84643L3.21875 1.7722C4.96744 2.86102 6.46112 4.58616 6.98573 5.78103L7.26989 6.77794L9.93665 0.174316H12.8147L8.53041 9.83936L5.65235 9.84643Z" fill="white"/>
<path d="M14.9277 9.85374H12.21L13.9149 0.16748H16.6327L14.9277 9.85374Z" fill="white"/>
<path d="M19.6629 9.99491C18.4461 9.98784 17.273 9.74745 16.6318 9.47878L17.0107 7.30821L17.3605 7.46376C18.2567 7.82434 18.8323 7.97281 19.9179 7.97281C20.6975 7.97281 21.5355 7.67586 21.5428 7.0254C21.55 6.60118 21.193 6.29716 20.1365 5.82345C19.1019 5.35682 17.7393 4.58616 17.7539 3.19332C17.7685 1.31263 19.6629 -0.00244141 22.3515 -0.00244141C23.408 -0.00244141 24.2532 0.209667 24.7924 0.400564L24.4208 2.50043L24.1731 2.39438C23.6703 2.19641 23.0291 2.01258 22.1402 2.01965C21.0764 2.01965 20.581 2.45094 20.581 2.85394C20.5737 3.30644 21.1566 3.60339 22.1038 4.05589C23.6703 4.74877 24.399 5.59014 24.3844 6.68603C24.3771 8.70105 22.5191 9.99491 19.6629 9.99491Z" fill="white"/>
<path d="M31.7662 0.181152H29.6678C29.0193 0.181152 28.5311 0.350839 28.247 0.980092L24.2031 9.85327H27.0593C27.0593 9.85327 27.5256 8.6584 27.6277 8.3968C27.941 8.3968 30.717 8.3968 31.1105 8.3968C31.1906 8.73617 31.4384 9.8462 31.4384 9.8462H33.9594L31.7662 0.181152ZM28.4146 6.41712C28.6404 5.85857 29.5002 3.70921 29.5002 3.70921C29.4856 3.73749 29.7261 3.15066 29.8645 2.78301L30.0467 3.6173C30.0467 3.6173 30.564 5.92927 30.6733 6.41712H28.4146Z" fill="white"/>
</svg>
