<svg width="24" height="24" viewBox="0 0 24 24" fill="none" xmlns="http://www.w3.org/2000/svg">
<g clip-path="url(#clip0_1081_972)">
<path d="M0 24L1.69627 17.8403C0.647564 16.0323 0.0974211 13.9848 0.103152 11.8916C0.103152 5.3327 5.46704 0 12.0516 0C15.2493 0 18.2521 1.23764 20.5043 3.48479C22.7622 5.73194 24.0057 8.72053 24 11.8973C24 18.4563 18.6361 23.789 12.0458 23.789H12.0401C10.0401 23.789 8.07449 23.2871 6.32664 22.3403L0 24ZM6.63037 20.1901L6.9914 20.4068C8.51575 21.308 10.2636 21.7814 12.0458 21.7871H12.0516C17.5243 21.7871 21.9828 17.3555 21.9828 11.903C21.9828 9.26236 20.9513 6.78137 19.0773 4.91065C17.2034 3.03992 14.7049 2.01331 12.0516 2.01331C6.57879 2.0076 2.12034 6.43916 2.12034 11.8916C2.12034 13.7567 2.64183 15.576 3.63897 17.1502L3.87392 17.5266L2.87106 21.1711L6.63037 20.1901Z" fill="white"/>
<path d="M0.417969 23.5837L2.05694 17.635C1.04261 15.8954 0.509659 13.9163 0.509659 11.8973C0.51539 5.56653 5.69017 0.416344 12.0512 0.416344C15.14 0.416344 18.034 1.61406 20.2117 3.78136C22.3893 5.94866 23.587 8.8346 23.587 11.903C23.587 18.2338 18.4065 23.384 12.0512 23.384H12.0455C10.1142 23.384 8.21739 22.8992 6.53258 21.9867L0.417969 23.5837Z" fill="url(#paint0_linear_1081_972)"/>
<path d="M0 24L1.69627 17.8403C0.647564 16.0323 0.0974211 13.9848 0.103152 11.8916C0.103152 5.3327 5.46704 0 12.0516 0C15.2493 0 18.2521 1.23764 20.5043 3.48479C22.7622 5.73194 24.0057 8.72053 24 11.8973C24 18.4563 18.6361 23.789 12.0458 23.789H12.0401C10.0401 23.789 8.07449 23.2871 6.32664 22.3403L0 24ZM6.63037 20.1901L6.9914 20.4068C8.51575 21.308 10.2636 21.7814 12.0458 21.7871H12.0516C17.5243 21.7871 21.9828 17.3555 21.9828 11.903C21.9828 9.26236 20.9513 6.78137 19.0773 4.91065C17.2034 3.03992 14.7049 2.01331 12.0516 2.01331C6.57879 2.0076 2.12034 6.43916 2.12034 11.8916C2.12034 13.7567 2.64183 15.576 3.63897 17.1502L3.87392 17.5266L2.87106 21.1711L6.63037 20.1901Z" fill="url(#paint1_linear_1081_972)"/>
<path fill-rule="evenodd" clip-rule="evenodd" d="M9.06551 6.91826C8.84202 6.42206 8.60706 6.41065 8.39503 6.40495C8.22311 6.39925 8.02253 6.39925 7.82196 6.39925C7.62139 6.39925 7.30047 6.47339 7.0254 6.76997C6.75033 7.06655 5.98242 7.78518 5.98242 9.25096C5.98242 10.711 7.05405 12.1255 7.20305 12.3251C7.35205 12.5247 9.27182 15.6217 12.3033 16.8137C14.8248 17.8061 15.3406 17.6065 15.885 17.5551C16.4294 17.5038 17.65 16.8365 17.9022 16.1407C18.1486 15.4449 18.1486 14.8517 18.0741 14.7262C17.9996 14.6008 17.799 14.5266 17.501 14.3783C17.203 14.23 15.736 13.5114 15.4609 13.4088C15.1859 13.3118 14.9853 13.2605 14.7904 13.557C14.5899 13.8536 14.0168 14.5209 13.8449 14.7205C13.673 14.9202 13.4953 14.943 13.1973 14.7947C12.8993 14.6464 11.9366 14.3327 10.7962 13.3175C9.90792 12.5304 9.3062 11.5551 9.13428 11.2586C8.96236 10.962 9.11709 10.8023 9.26609 10.654C9.39789 10.5228 9.56408 10.3061 9.71308 10.135C9.86208 9.96389 9.91365 9.83841 10.0111 9.63879C10.1085 9.43917 10.0626 9.26807 9.98815 9.11978C9.91365 8.97719 9.32912 7.50571 9.06551 6.91826Z" fill="white"/>
</g>
<defs>
<linearGradient id="paint0_linear_1081_972" x1="12.0019" y1="23.5825" x2="12.0019" y2="0.415533" gradientUnits="userSpaceOnUse">
<stop stop-color="#20B038"/>
<stop offset="1" stop-color="#60D66A"/>
</linearGradient>
<linearGradient id="paint1_linear_1081_972" x1="12.0023" y1="23.9977" x2="12.0023" y2="0" gradientUnits="userSpaceOnUse">
<stop stop-color="#F9F9F9"/>
<stop offset="1" stop-color="white"/>
</linearGradient>
<clipPath id="clip0_1081_972">
<path d="M0 4C0 1.79086 1.79086 0 4 0H16C20.4183 0 24 3.58172 24 8V16C24 20.4183 20.4183 24 16 24H4C1.79086 24 0 22.2091 0 20V4Z" fill="white"/>
</clipPath>
</defs>
</svg>
